<?xml version="1.0" encoding="utf-8"?>
<!-- Generator: Adobe Illustrator 15.0.0, SVG Export Plug-In . SVG Version: 6.00 Build 0)  -->
<!DOCTYPE svg PUBLIC "-//W3C//DTD SVG 1.1//EN" "http://www.w3.org/Graphics/SVG/1.1/DTD/svg11.dtd">
<svg version="1.1" id="レイヤー_1" xmlns="http://www.w3.org/2000/svg" xmlns:xlink="http://www.w3.org/1999/xlink" x="0px"
	 y="0px" width="622.488px" height="574.08px" viewBox="0 0 622.488 574.08" enable-background="new 0 0 622.488 574.08"
	 xml:space="preserve">
<path id="パス_46056" fill="#D1D1D1" d="M311.244,485.251c27.376-2.965,49.853,17.443,64.23,37.094
	c14.381,19.651,28.671,42.44,54.94,49.513c36.913,9.937,63.683-14.816,70.827-46.679c7.543-33.64,12.932-59.621,28.286-92.255
	c11.479-24.399,29.72-53.616,43.358-76.847c36.585-62.313,59.56-132.827,45.34-201.187C604.011,86.53,546.365,21.727,465.705,4.718
	c-41.537-8.759-85.495-4.552-126.569,6.289c-18.292,4.811-37.518,4.811-55.81,0C242.26,0.164,198.312-4.039,156.782,4.718
	C76.122,21.727,18.477,86.529,4.259,154.889c-14.218,68.36,8.754,138.875,45.341,201.188c13.64,23.23,31.879,52.447,43.36,76.847
	c15.355,32.634,20.744,58.615,28.286,92.255c7.144,31.862,33.914,56.615,70.827,46.679c26.271-7.072,40.56-29.861,54.94-49.513
	C261.393,502.695,283.869,482.286,311.244,485.251"/>
</svg>
