<?xml version="1.0" encoding="utf-8"?>
<!-- Generator: Adobe Illustrator 15.0.0, SVG Export Plug-In . SVG Version: 6.00 Build 0)  -->
<!DOCTYPE svg PUBLIC "-//W3C//DTD SVG 1.1//EN" "http://www.w3.org/Graphics/SVG/1.1/DTD/svg11.dtd">
<svg version="1.1" id="レイヤー_1" xmlns="http://www.w3.org/2000/svg" xmlns:xlink="http://www.w3.org/1999/xlink" x="0px"
	 y="0px" width="620.723px" height="605.163px" viewBox="25.347 26.006 620.723 605.163"
	 enable-background="new 25.347 26.006 620.723 605.163" xml:space="preserve">
<path id="パス_46057" fill="none" d="M375.749,523.846c26.696-6.746,51.795,10.334,68.77,27.793
	c16.974,17.459,34.297,38.037,61.296,41.383c37.937,4.703,61.001-23.535,63.642-56.08c2.787-34.361,4.508-60.84,15.171-95.293
	c7.974-25.761,21.969-57.232,32.243-82.134c27.557-66.797,40.492-139.823,16.898-205.54C610.176,88.26,544.071,32.11,461.829,26.493
	c-42.352-2.893-85.296,7.391-124.462,23.843c-17.444,7.31-36.482,9.985-55.267,7.767c-42.175-5.022-86.281-3.068-126.188,11.384
	C78.405,97.556,30.34,169.75,25.774,239.423s27.997,136.305,72.9,192.919c16.74,21.107,38.868,47.502,53.633,70.064
	c19.748,30.18,28.7,55.158,40.85,87.422c11.509,30.557,41.463,51.344,76.634,36.365c25.031-10.66,36.009-35.215,47.515-56.676
	C328.811,548.057,348.228,524.719,375.749,523.846"/>
</svg>
