<?xml version="1.0" encoding="utf-8"?>
<!-- Generator: Adobe Illustrator 15.0.0, SVG Export Plug-In . SVG Version: 6.00 Build 0)  -->
<!DOCTYPE svg PUBLIC "-//W3C//DTD SVG 1.1//EN" "http://www.w3.org/Graphics/SVG/1.1/DTD/svg11.dtd">
<svg version="1.1" id="レイヤー_1" xmlns="http://www.w3.org/2000/svg" xmlns:xlink="http://www.w3.org/1999/xlink" x="0px"
	 y="0px" width="619.9px" height="612.176px" viewBox="0 0 619.9 612.176" enable-background="new 0 0 619.9 612.176"
	 xml:space="preserve">
<path id="パス_46054" fill="#D1D1D1" d="M259.947,500.313c27.479,1.844,46.069,25.855,56.813,47.715
	c10.744,21.857,20.855,46.791,45.501,58.328c34.632,16.211,65.307-3.514,77.888-33.654c13.283-31.821,23.111-56.477,43.914-85.948
	c15.555-22.035,38.604-47.642,56.081-68.148c46.878-55.012,81.775-120.472,79.666-190.281S572.194,84.654,495.704,53.865
	c-39.391-15.855-83.421-19.36-125.766-15.828c-18.854,1.556-37.792-1.79-54.974-9.711C276.402,10.5,233.844-1.288,191.414,0.113
	C109.004,2.832,40.949,56.632,15.049,121.492c-25.899,64.861-15.542,138.315,9.654,206.06c9.394,25.256,22.275,57.207,29.338,83.238
	c9.446,34.815,10.234,61.346,11.81,95.793c1.493,32.627,23.554,61.668,61.643,58.301c27.107-2.396,45.147-22.355,62.731-39.209
	C207.809,508.82,233.498,492.63,259.947,500.313"/>
</svg>
