<?xml version="1.0" encoding="utf-8"?>
<!-- Generator: Adobe Illustrator 15.0.0, SVG Export Plug-In . SVG Version: 6.00 Build 0)  -->
<!DOCTYPE svg PUBLIC "-//W3C//DTD SVG 1.1//EN" "http://www.w3.org/Graphics/SVG/1.1/DTD/svg11.dtd">
<svg version="1.1" id="レイヤー_1" xmlns="http://www.w3.org/2000/svg" xmlns:xlink="http://www.w3.org/1999/xlink" x="0px"
	 y="0px" width="619.9px" height="612.176px" viewBox="61.883 31.815 619.9 612.176"
	 enable-background="new 61.883 31.815 619.9 612.176" xml:space="preserve">
<path id="パス_46054" fill="none" d="M321.83,532.128c27.48,1.844,46.069,25.855,56.813,47.715
	c10.744,21.857,20.855,46.791,45.501,58.328c34.631,16.211,65.306-3.514,77.887-33.654c13.283-31.822,23.112-56.477,43.914-85.949
	c15.555-22.035,38.604-47.641,56.081-68.148c46.878-55.012,81.776-120.472,79.666-190.281
	c-2.109-69.809-47.615-143.67-124.105-174.459c-39.391-15.855-83.421-19.36-125.766-15.828c-18.854,1.556-37.792-1.79-54.973-9.711
	c-38.563-17.826-81.121-29.613-123.551-28.213c-82.41,2.719-150.465,56.519-176.365,121.379
	c-25.899,64.861-15.542,138.315,9.654,206.06c9.394,25.256,22.275,57.207,29.338,83.238c9.446,34.816,10.234,61.346,11.81,95.793
	c1.493,32.627,23.554,61.668,61.643,58.301c27.107-2.395,45.147-22.355,62.731-39.209S295.381,524.445,321.83,532.128"/>
</svg>
