<?xml version="1.0" encoding="utf-8"?>
<!-- Generator: Adobe Illustrator 15.0.0, SVG Export Plug-In . SVG Version: 6.00 Build 0)  -->
<!DOCTYPE svg PUBLIC "-//W3C//DTD SVG 1.1//EN" "http://www.w3.org/Graphics/SVG/1.1/DTD/svg11.dtd">
<svg version="1.1" id="レイヤー_1" xmlns="http://www.w3.org/2000/svg" xmlns:xlink="http://www.w3.org/1999/xlink" x="0px"
	 y="0px" width="620.723px" height="605.164px" viewBox="0 0 620.723 605.164" enable-background="new 0 0 620.723 605.164"
	 xml:space="preserve">
<path id="パス_46057" fill="#D1D1D1" d="M350.402,497.838c26.696-6.746,51.795,10.334,68.77,27.793s34.298,38.037,61.297,41.385
	c37.937,4.701,61.001-23.535,63.642-56.08c2.787-34.361,4.508-60.842,15.171-95.293c7.974-25.762,21.969-57.232,32.243-82.135
	c27.557-66.797,40.492-139.823,16.897-205.54C584.829,62.253,518.725,6.103,436.482,0.486
	c-42.353-2.893-85.296,7.391-124.462,23.843c-17.444,7.31-36.482,9.985-55.267,7.767c-42.175-5.022-86.281-3.068-126.188,11.384
	C53.058,71.549,4.993,143.743,0.427,213.416c-4.566,69.673,27.997,136.305,72.9,192.918c16.74,21.107,38.868,47.502,53.633,70.064
	c19.748,30.18,28.7,55.158,40.85,87.422c11.509,30.557,41.463,51.344,76.634,36.365c25.031-10.66,36.009-35.215,47.515-56.676
	C303.464,522.049,322.881,498.711,350.402,497.838"/>
</svg>
