<?xml version="1.0" encoding="utf-8"?>
<!-- Generator: Adobe Illustrator 15.0.0, SVG Export Plug-In . SVG Version: 6.00 Build 0)  -->
<!DOCTYPE svg PUBLIC "-//W3C//DTD SVG 1.1//EN" "http://www.w3.org/Graphics/SVG/1.1/DTD/svg11.dtd">
<svg version="1.1" id="レイヤー_1" xmlns="http://www.w3.org/2000/svg" xmlns:xlink="http://www.w3.org/1999/xlink" x="0px"
	 y="0px" width="521.887px" height="64.406px" viewBox="0 0 521.887 64.406" enable-background="new 0 0 521.887 64.406"
	 xml:space="preserve">
<path fill="#DEA29B" d="M520.111,2.417c-0.983-1.335-2.86-1.62-4.194-0.639l-17.401,12.8c-5.25,3.864-12.574,6.08-20.095,6.08
	H286.496c0.614-3.736,0.962-7.73,0.962-12.029c0-1.657-1.343-3-3-3s-3,1.343-3,3c0,4.335-0.382,8.333-1.065,12.029H43.474
	c-7.513,0-14.838-2.217-20.095-6.081l-17.4-12.8C4.643,0.795,2.766,1.081,1.785,2.417C0.803,3.751,1.089,5.629,2.423,6.611
	l17.401,12.801c6.358,4.673,14.757,7.247,23.65,7.247h235.472c-6.99,22.963-27.114,31.749-41.521,31.749c-1.657,0-3,1.343-3,3
	s1.343,3,3,3c16.821,0,40.493-10.404,47.792-37.749H478.42c8.901,0,17.301-2.574,23.65-7.248l17.4-12.8
	C520.806,5.629,521.092,3.751,520.111,2.417z"/>
</svg>
