<svg xmlns="http://www.w3.org/2000/svg" width="221.585" height="29.749" viewBox="0 0 221.585 29.749">
  <g id="グループ_985" data-name="グループ 985" transform="translate(0 -91.061)">
    <g id="グループ_5" data-name="グループ 5" transform="translate(0 91.061)">
      <g id="グループ_2" data-name="グループ 2" transform="translate(0 15.504)">
        <g id="グループ_1" data-name="グループ 1">
          <path id="パス_1" data-name="パス 1" d="M52.3,234.834c0,.4-.389.614-.779.614s-.793-.21-.793-.614v-4.748c-.285.239-.584.464-.883.673a.917.917,0,0,1-.51.18.733.733,0,0,1-.7-.749.746.746,0,0,1,.359-.629,9.29,9.29,0,0,0,3.251-3.714.535.535,0,0,0,.045-.18c0-.1-.075-.135-.255-.135H49.47c-.374,0-.554-.359-.554-.719s.18-.7.554-.7h1.26v-2.052c0-.42.389-.614.793-.614s.779.194.779.614v2.052h.434c.809,0,1.3.42,1.3,1.094a2.042,2.042,0,0,1-.18.779,9.261,9.261,0,0,1-1.422,2.336,10.6,10.6,0,0,1,1.6.973.8.8,0,0,1,.36.629.712.712,0,0,1-.7.7.68.68,0,0,1-.465-.18,10.419,10.419,0,0,0-.928-.629Zm5.483-12.717a.79.79,0,0,1,1.557,0v2.1h1.348c1.228,0,1.768.569,1.768,1.633v3.938c-.03,1.184-.645,1.618-1.768,1.633H59.342V234.8a.79.79,0,0,1-1.557,0v-3.386H56.541c-1.227,0-1.767-.569-1.767-1.633v-3.938c0-1.064.54-1.633,1.767-1.633h1.244Zm0,4.973v-1.5H56.721c-.33,0-.419.12-.419.42v1.077Zm0,2.951v-1.632H56.3v1.212c0,.3.1.42.419.42Zm1.557-2.951H60.93v-1.077c0-.3-.089-.42-.419-.42H59.342Zm0,1.319v1.632h1.169c.329,0,.419-.12.419-.42v-1.212Z" transform="translate(-48.633 -221.263)" fill="#ed877c"/>
          <path id="パス_2" data-name="パス 2" d="M67.989,229.939a9.566,9.566,0,0,1-1.767,5.109.874.874,0,0,1-.734.374.842.842,0,0,1-.868-.765.8.8,0,0,1,.194-.494,8.829,8.829,0,0,0,1.573-5.6v-1.723c0-1.348.555-1.8,2.142-1.8h6.006c1.482,0,2.053.449,2.053,1.557v1.814a1.43,1.43,0,0,1-.5,1.2,2.781,2.781,0,0,1-1.557.328Zm9.3-7.593a.681.681,0,0,1,.658.764.689.689,0,0,1-.658.764H65.473a.7.7,0,0,1-.659-.764.691.691,0,0,1,.659-.764Zm-3.042,6.126c.57,0,.69-.165.69-.525v-.913c0-.36-.12-.525-.69-.525H68.784c-.615,0-.748.135-.748.629v1.333Z" transform="translate(-50.035 -221.342)" fill="#ed877c"/>
          <path id="パス_3" data-name="パス 3" d="M91.21,230.391c0,2.337-1.753,3.984-5.109,4.464a.72.72,0,1,1-.224-1.423c2.845-.494,3.82-1.453,3.82-3.041,0-.959-.69-1.707-2.172-1.707a14.7,14.7,0,0,0-5.676,1.467.765.765,0,0,1-.36.075.7.7,0,0,1-.7-.7.759.759,0,0,1,.509-.7,16.329,16.329,0,0,1,6.231-1.5C89.711,227.321,91.21,228.5,91.21,230.391Z" transform="translate(-51.453 -221.779)" fill="#ed877c"/>
          <path id="パス_4" data-name="パス 4" d="M95.573,231.237a4.037,4.037,0,0,1,.166-1.123.826.826,0,0,1,.838-.6.752.752,0,0,1,.824.689,1.3,1.3,0,0,1-.03.211,3.129,3.129,0,0,0-.089.748c0,.944.508,1.453,3.309,1.453a20.547,20.547,0,0,0,4.089-.434,1.468,1.468,0,0,1,.241-.03.8.8,0,0,1,.793.824.875.875,0,0,1-.734.854,19.737,19.737,0,0,1-4.388.464C96.981,234.293,95.573,233.274,95.573,231.237Zm5.108-7.443a18.423,18.423,0,0,0,2.832-.2.828.828,0,0,1,.269,1.633,21.217,21.217,0,0,1-3.086.209,17.018,17.018,0,0,1-3.264-.284.821.821,0,0,1-.66-.824.81.81,0,0,1,.989-.839A14.644,14.644,0,0,0,100.681,223.793Z" transform="translate(-52.75 -221.441)" fill="#ed877c"/>
          <path id="パス_5" data-name="パス 5" d="M112.139,225.45a.806.806,0,0,1,.839.778.978.978,0,0,1-.061.33,15.034,15.034,0,0,1-2.98,4.762.912.912,0,0,1-.658.3.839.839,0,0,1-.839-.795.951.951,0,0,1,.284-.629,14.93,14.93,0,0,0,2.636-4.224A.8.8,0,0,1,112.139,225.45Zm4.178,7.893c0,1.258-.6,1.9-2.021,1.9a6.429,6.429,0,0,1-1.318-.15.738.738,0,0,1-.57-.763.788.788,0,0,1,.958-.824,4.211,4.211,0,0,0,.765.089c.375,0,.51-.12.51-.569V222.244a.848.848,0,0,1,1.677,0Zm5.752-3.819a1.012,1.012,0,0,1,.329.719.877.877,0,0,1-.854.869.841.841,0,0,1-.643-.286,18.47,18.47,0,0,1-3.055-4.3.892.892,0,0,1-.091-.374.8.8,0,0,1,.825-.749.827.827,0,0,1,.734.465A18.414,18.414,0,0,0,122.07,229.524Z" transform="translate(-53.879 -221.27)" fill="#ed877c"/>
          <path id="パス_6" data-name="パス 6" d="M129.262,229.661a.745.745,0,0,1,.809.884,6.291,6.291,0,0,1-5.062,4.7,1.133,1.133,0,0,1-.21.031.739.739,0,0,1-.734-.75.747.747,0,0,1,.615-.719,4.593,4.593,0,0,0,3.788-3.534A.757.757,0,0,1,129.262,229.661ZM127.434,229c0,.449-.419.673-.838.673s-.838-.224-.838-.673v-6.591c0-.449.419-.674.838-.674s.838.225.838.674Zm3.821.163c-1.349,0-1.961-.449-1.961-1.632v-3.924c0-1.183.612-1.633,1.961-1.633h3.056c1.347,0,1.961.45,1.961,1.633v3.924c-.03,1.333-.764,1.6-1.961,1.632Zm3.4-5.406c0-.315-.119-.434-.524-.434h-2.7c-.4,0-.524.12-.524.434v1.123h3.743Zm-.524,4.059c.405,0,.524-.12.524-.434V226.2h-3.743v1.183c.015.374.194.434.524.434Zm-2.621,2.471a.826.826,0,0,1,1.618,0v2.937c0,.329.163.433,1.139.433,1.408,0,1.662-.12,1.752-.973a.807.807,0,0,1,1.6.151c-.15,1.707-.9,2.2-3.4,2.2-2.275,0-2.71-.39-2.71-1.5Z" transform="translate(-55.25 -221.289)" fill="#ed877c"/>
          <path id="パス_7" data-name="パス 7" d="M146.1,221.954a.816.816,0,0,1,1.6,0v.569h3.22a.625.625,0,0,1,.63.674.632.632,0,0,1-.63.674H147.7v.779h5.242a.692.692,0,0,1,0,1.377H140.317a.693.693,0,0,1,0-1.377h2.277v-2.023a.816.816,0,0,1,1.6,0v2.023h1.9Zm4.657,5.2a.826.826,0,0,1,1.617,0v6.127c0,1.258-.524,1.888-2.127,1.888h-7.278c-1.6,0-2.127-.63-2.127-1.888v-6.111c0-.435.4-.644.809-.644s.808.209.808.644V233.1c0,.554.164.719.779.719h6.74c.615,0,.779-.165.779-.719Zm-3.46,5.108v.719a.64.64,0,0,1-.718.585c-.36,0-.72-.2-.72-.585v-.719l.045-1a11.25,11.25,0,0,1-2.1,1.693.813.813,0,0,1-.421.134.645.645,0,0,1-.629-.644.624.624,0,0,1,.344-.539,9.634,9.634,0,0,0,2.114-1.677h-1.693a.552.552,0,0,1-.54-.6.546.546,0,0,1,.54-.583h2.336v-2.127c0-.39.359-.584.72-.584s.718.194.718.584v2.127h2.4a.593.593,0,0,1,0,1.183h-1.812a11.209,11.209,0,0,0,2.127,1.347.708.708,0,0,1,.432.644.7.7,0,0,1-.673.7.942.942,0,0,1-.4-.119,9.752,9.752,0,0,1-2.112-1.588Zm-3.909-4.883a.679.679,0,0,1,.7-.613.734.734,0,0,1,.555.255,5.112,5.112,0,0,1,.57.764.659.659,0,0,1-.615,1.034.62.62,0,0,1-.54-.315c-.15-.24-.314-.479-.554-.794A.5.5,0,0,1,143.387,227.375Zm5.737-.673a.663.663,0,0,1,.688.614.541.541,0,0,1-.075.286,5.8,5.8,0,0,1-.658.973.653.653,0,0,1-.51.254.672.672,0,0,1-.675-.614.642.642,0,0,1,.136-.374,8.353,8.353,0,0,0,.57-.839A.577.577,0,0,1,149.124,226.7Z" transform="translate(-56.621 -221.25)" fill="#ed877c"/>
          <path id="パス_8" data-name="パス 8" d="M158.625,229.9a11.6,11.6,0,0,1-1.273,2.277.788.788,0,0,1-.645.374.677.677,0,0,1-.673-.66.757.757,0,0,1,.15-.433,16.729,16.729,0,0,0,2.232-4.6h-1.6c-.388,0-.568-.359-.568-.719s.181-.7.555-.7h1.767v-1.347c-.434.089-.855.164-1.26.209a.692.692,0,0,1-.793-.719.674.674,0,0,1,.585-.689,17.437,17.437,0,0,0,3.668-1.034.936.936,0,0,1,.33-.075.77.77,0,0,1,.72.809.677.677,0,0,1-.435.659c-.419.164-.839.314-1.274.45v1.737h1.438c.39,0,.57.359.57.7s-.18.719-.57.719h-1.438v.868a8.262,8.262,0,0,1,1.679,1.422.755.755,0,0,1,.21.51.707.707,0,0,1-.69.689.671.671,0,0,1-.524-.269c-.2-.24-.435-.479-.675-.719v5.527a.686.686,0,0,1-.763.629c-.39,0-.779-.211-.779-.629V233.21Zm10.635-.838a.72.72,0,0,1,.837.778.655.655,0,0,1-.524.674l-1.378.3v3.909a.828.828,0,0,1-1.632,0v-3.535l-4.015.884a.743.743,0,0,1-.839-.809.628.628,0,0,1,.51-.66l4.344-.959V222.23a.828.828,0,0,1,1.632,0v7.07Zm-4.03-1.5a.791.791,0,0,1,.255.569.819.819,0,0,1-.793.794.783.783,0,0,1-.554-.255c-.36-.344-.839-.764-1.2-1.047a.7.7,0,0,1-.3-.555.792.792,0,0,1,.795-.749.827.827,0,0,1,.48.15A9.011,9.011,0,0,1,165.23,227.562Zm.54-3.145a.831.831,0,0,1,.24.554.8.8,0,0,1-.78.779.818.818,0,0,1-.583-.255c-.359-.344-.795-.72-1.139-1a.7.7,0,0,1-.285-.555.781.781,0,0,1,.793-.749.892.892,0,0,1,.479.15A9.406,9.406,0,0,1,165.77,224.418Z" transform="translate(-58.054 -221.272)" fill="#ed877c"/>
          <path id="パス_9" data-name="パス 9" d="M176.412,228.956a1.419,1.419,0,0,1-1.423,1.409,1.388,1.388,0,0,1-1.408-1.409,1.419,1.419,0,0,1,1.408-1.422A1.451,1.451,0,0,1,176.412,228.956Z" transform="translate(-59.593 -221.798)" fill="#ed877c"/>
          <path id="パス_10" data-name="パス 10" d="M186.46,227.014v-.1a11.209,11.209,0,0,1-1.259,1.139.757.757,0,0,1-.463.18.68.68,0,0,1-.54-.27.519.519,0,0,1,.016.165.649.649,0,0,1-.615.7h-.973a14.343,14.343,0,0,1-.255,1.782,13.052,13.052,0,0,1,1.8,2.053.849.849,0,0,1,.18.524.75.75,0,0,1-.748.75.813.813,0,0,1-.674-.405c-.27-.4-.629-.869-.989-1.318a8.995,8.995,0,0,1-1.408,2.606.825.825,0,0,1-.645.344.748.748,0,0,1-.764-.719.826.826,0,0,1,.21-.539,9.327,9.327,0,0,0,1.768-5.077h-1.469a.646.646,0,0,1-.6-.7.637.637,0,0,1,.6-.7h1.544v-2.261h-.286a9.394,9.394,0,0,1-.4.868.816.816,0,0,1-.718.449.691.691,0,0,1-.72-.674.8.8,0,0,1,.1-.39,11.882,11.882,0,0,0,1.079-3.235.68.68,0,0,1,.718-.569.714.714,0,0,1,.749.868,11.237,11.237,0,0,1-.33,1.333h2.127a.622.622,0,0,1,.615.674.63.63,0,0,1-.615.675h-.808v2.261h.914a.7.7,0,0,1,.464.211l-.016-.09a.734.734,0,0,1,.329-.6,9.86,9.86,0,0,0,1.574-1.5H184.8a.634.634,0,0,1,0-1.258h2.069c.119-.21.239-.4.344-.615-.555.046-1.108.075-1.618.106a.629.629,0,0,1-.659-.66.592.592,0,0,1,.6-.614,33.269,33.269,0,0,0,5.272-.674.689.689,0,0,1,.839.69.622.622,0,0,1-.568.629c-.69.135-1.454.24-2.232.345-.119.269-.255.539-.389.794H192.3a.634.634,0,0,1,0,1.258h-1.228a7.131,7.131,0,0,0,1.721,1.288.723.723,0,0,1,.421.644.745.745,0,0,1-.72.749.911.911,0,0,1-.45-.135,9.152,9.152,0,0,1-1.438-1.123.469.469,0,0,1,.015.15v.839c-.015.719-.449.928-1.108.943h-1.946c-.75,0-1.108-.3-1.108-.943Zm4.373,2.231c1.213,0,1.588.479,1.588,1.468v3.235c0,.93-.463,1.349-1.452,1.349a4.719,4.719,0,0,1-.809-.061.674.674,0,0,1-.6-.688.64.64,0,0,1,.748-.675,4.076,4.076,0,0,0,.405.046c.15,0,.21-.075.21-.315v-2.71c0-.3-.091-.4-.451-.4H186.7c-.359,0-.449.1-.449.4v3.879c0,.4-.374.6-.748.6s-.751-.2-.751-.6v-4.06c0-1.033.375-1.468,1.648-1.468Zm-2.906,4.4c-.734,0-1.048-.269-1.048-.928v-.839c0-.644.314-.929,1.048-.929h1.318c.734,0,1.05.285,1.05.929v.839c-.016.719-.39.913-1.05.928Zm-.255-8.208c-.164.24-.344.464-.525.689a1.738,1.738,0,0,1,.5-.059h1.8a1.738,1.738,0,0,1,.5.059,7.475,7.475,0,0,1-.524-.689Zm1.513,2.366c.165,0,.21-.045.21-.165v-.419c0-.12-.045-.164-.21-.164H187.9c-.166,0-.211.044-.211.164v.419c0,.136.089.165.211.165Zm-.239,4.883c.164,0,.211-.029.211-.18v-.419c0-.15-.047-.18-.211-.18h-.7c-.166,0-.211.03-.211.18v.419c0,.15.075.18.211.18Z" transform="translate(-60.071 -221.278)" fill="#ed877c"/>
          <path id="パス_11" data-name="パス 11" d="M197.783,227.082a.848.848,0,0,1,1.677,0v6.142h2.172v-9.137h-5.018a.7.7,0,0,1-.66-.764.691.691,0,0,1,.66-.764h11.368a.683.683,0,0,1,.66.764.69.69,0,0,1-.66.764H203.31v3.46h3.7a.682.682,0,0,1,.659.764.69.69,0,0,1-.659.764h-3.7v4.149h5.212a.681.681,0,0,1,.659.763.689.689,0,0,1-.659.764H196.061a.7.7,0,0,1-.66-.764.69.69,0,0,1,.66-.763h1.722Z" transform="translate(-61.507 -221.361)" fill="#ed877c"/>
          <path id="パス_12" data-name="パス 12" d="M217.64,221.954a.816.816,0,0,1,1.6,0v.569h3.22a.625.625,0,0,1,.63.674.632.632,0,0,1-.63.674h-3.22v.779h5.242a.692.692,0,0,1,0,1.377H211.858a.693.693,0,0,1,0-1.377h2.277v-2.023a.816.816,0,0,1,1.6,0v2.023h1.9Zm4.657,5.2a.826.826,0,0,1,1.617,0v6.127c0,1.258-.524,1.888-2.127,1.888h-7.278c-1.6,0-2.127-.63-2.127-1.888v-6.111c0-.435.4-.644.809-.644s.808.209.808.644V233.1c0,.554.164.719.779.719h6.74c.615,0,.779-.165.779-.719Zm-3.46,5.108v.719a.64.64,0,0,1-.718.585c-.36,0-.72-.2-.72-.585v-.719l.045-1a11.252,11.252,0,0,1-2.1,1.693.813.813,0,0,1-.421.134.645.645,0,0,1-.63-.644.624.624,0,0,1,.344-.539,9.635,9.635,0,0,0,2.114-1.677h-1.693a.551.551,0,0,1-.539-.6.546.546,0,0,1,.539-.583H217.4v-2.127c0-.39.359-.584.72-.584s.718.194.718.584v2.127h2.4a.593.593,0,0,1,0,1.183h-1.812a11.212,11.212,0,0,0,2.127,1.347.708.708,0,0,1,.432.644.7.7,0,0,1-.673.7.942.942,0,0,1-.4-.119,9.752,9.752,0,0,1-2.112-1.588Zm-3.909-4.883a.679.679,0,0,1,.7-.613.734.734,0,0,1,.555.255,5.115,5.115,0,0,1,.57.764.659.659,0,0,1-.615,1.034.62.62,0,0,1-.54-.315c-.15-.24-.314-.479-.554-.794A.5.5,0,0,1,214.928,227.375Zm5.737-.673a.663.663,0,0,1,.688.614.542.542,0,0,1-.075.286,5.809,5.809,0,0,1-.658.973.652.652,0,0,1-.509.254.672.672,0,0,1-.676-.614.642.642,0,0,1,.136-.374,8.338,8.338,0,0,0,.57-.839A.577.577,0,0,1,220.665,226.7Z" transform="translate(-62.897 -221.25)" fill="#ed877c"/>
          <path id="パス_13" data-name="パス 13" d="M230.166,229.9a11.6,11.6,0,0,1-1.273,2.277.788.788,0,0,1-.645.374.677.677,0,0,1-.673-.66.757.757,0,0,1,.15-.433,16.726,16.726,0,0,0,2.232-4.6h-1.6c-.388,0-.568-.359-.568-.719s.181-.7.555-.7h1.767v-1.347c-.434.089-.855.164-1.26.209a.692.692,0,0,1-.793-.719.674.674,0,0,1,.585-.689,17.439,17.439,0,0,0,3.668-1.034.936.936,0,0,1,.33-.075.77.77,0,0,1,.72.809.677.677,0,0,1-.435.659c-.419.164-.839.314-1.274.45v1.737h1.438c.39,0,.57.359.57.7s-.18.719-.57.719h-1.438v.868a8.262,8.262,0,0,1,1.679,1.422.755.755,0,0,1,.21.51.707.707,0,0,1-.69.689.671.671,0,0,1-.524-.269c-.2-.24-.435-.479-.675-.719v5.527a.686.686,0,0,1-.763.629c-.39,0-.779-.211-.779-.629V233.21Zm10.635-.838a.72.72,0,0,1,.837.778.655.655,0,0,1-.524.674l-1.378.3v3.909a.828.828,0,0,1-1.632,0v-3.535l-4.015.884a.743.743,0,0,1-.839-.809.628.628,0,0,1,.51-.66l4.344-.959V222.23a.828.828,0,0,1,1.632,0v7.07Zm-4.03-1.5a.791.791,0,0,1,.255.569.819.819,0,0,1-.793.794.783.783,0,0,1-.554-.255c-.36-.344-.839-.764-1.2-1.047a.7.7,0,0,1-.3-.555.792.792,0,0,1,.795-.749.827.827,0,0,1,.48.15A9.011,9.011,0,0,1,236.771,227.562Zm.54-3.145a.831.831,0,0,1,.24.554.8.8,0,0,1-.78.779.818.818,0,0,1-.583-.255c-.359-.344-.795-.72-1.139-1a.7.7,0,0,1-.285-.555.781.781,0,0,1,.793-.749.891.891,0,0,1,.479.15A9.406,9.406,0,0,1,237.311,224.418Z" transform="translate(-64.329 -221.272)" fill="#ed877c"/>
          <path id="パス_14" data-name="パス 14" d="M244.29,225.7a.767.767,0,0,1,0-1.5h4.672a.763.763,0,0,1,0,1.5ZM246,235.149c-1.139,0-1.513-.449-1.513-1.378v-1.813c0-.929.374-1.378,1.513-1.378h1.544c1.138,0,1.513.449,1.513,1.378v1.813c-.016,1.063-.5,1.363-1.513,1.378Zm-.853-11.638a.634.634,0,0,1-.57-.7c0-.359.2-.7.57-.7h3.115a.625.625,0,0,1,.585.7.634.634,0,0,1-.585.7Zm0,4.284a.634.634,0,0,1-.57-.7c0-.359.2-.7.57-.7h3.115a.626.626,0,0,1,.585.7.634.634,0,0,1-.585.7Zm0,2.1a.633.633,0,0,1-.57-.7c0-.359.2-.7.57-.7h3.115a.626.626,0,0,1,.585.7.633.633,0,0,1-.585.7Zm2.1,3.909c.238,0,.313-.089.313-.344v-1.184c0-.254-.075-.344-.313-.344H246.3c-.238,0-.315.09-.315.344v1.184c0,.24.06.344.315.344Zm10.379-7.459a.855.855,0,0,1,.344.674.844.844,0,0,1-.824.839.951.951,0,0,1-.643-.285,17.825,17.825,0,0,1-3.011-3.564,14.91,14.91,0,0,1-2.8,3.46.915.915,0,0,1-.615.254.748.748,0,0,1-.763-.719.845.845,0,0,1,.33-.643,13.176,13.176,0,0,0,3.1-4.254.785.785,0,0,1,.734-.479.767.767,0,0,1,.808.7.6.6,0,0,1-.046.224A16.135,16.135,0,0,0,257.621,226.341Zm-1.034,4.479a.8.8,0,0,1,.778.778.7.7,0,0,1-.313.569,17.7,17.7,0,0,1-6.292,2.966,1.2,1.2,0,0,1-.21.029.739.739,0,0,1-.119-1.467,16.406,16.406,0,0,0,5.663-2.681A.764.764,0,0,1,256.587,230.821Zm-2.607-4.569a.8.8,0,0,1,.781.733.664.664,0,0,1-.211.48,11.681,11.681,0,0,1-3.236,2.381.908.908,0,0,1-.374.09.7.7,0,0,1-.69-.69.671.671,0,0,1,.421-.614,9.848,9.848,0,0,0,2.772-2.112A.656.656,0,0,1,253.98,226.252Zm1.288,2.231a.8.8,0,0,1,.779.749.7.7,0,0,1-.239.494,14.037,14.037,0,0,1-4.582,2.727,1.021,1.021,0,0,1-.286.045.691.691,0,0,1-.69-.7.714.714,0,0,1,.5-.673,12.123,12.123,0,0,0,4.029-2.427A.7.7,0,0,1,255.268,228.483Z" transform="translate(-65.743 -221.279)" fill="#ed877c"/>
          <path id="パス_15" data-name="パス 15" d="M270.893,226.189a5.494,5.494,0,0,0,.763.794c.166-.15.346-.3.54-.494a.613.613,0,0,1,.449-.194.713.713,0,0,1,.69.659.6.6,0,0,1-.225.45c-.136.12-.285.254-.435.374a7.136,7.136,0,0,0,.944.525.739.739,0,0,1-.24,1.423.706.706,0,0,1-.36-.106,9.57,9.57,0,0,1-1.258-.823v1.872c0,.914-.479,1.243-1.468,1.243h-.749v1.947c0,1.094-.479,1.543-1.648,1.543a3.834,3.834,0,0,1-.882-.089.723.723,0,0,1,.239-1.423,3.231,3.231,0,0,0,.493.059c.2,0,.24-.059.24-.284v-1.752h-.838c-.989,0-1.469-.329-1.469-1.243v-1.6c-.254.2-.524.39-.778.569a.8.8,0,0,1-.45.15.619.619,0,0,1-.629-.614.691.691,0,0,1,.36-.584,8.577,8.577,0,0,0,.942-.7c-.164-.15-.33-.27-.463-.374a.574.574,0,0,1-.255-.464.666.666,0,0,1,.643-.629.733.733,0,0,1,.374.12,3.561,3.561,0,0,1,.615.463c.224-.27.449-.524.659-.808h-1.753a.563.563,0,0,1-.537-.614.555.555,0,0,1,.537-.614h2.532a5.555,5.555,0,0,0,.3-.6.74.74,0,0,1,.4-.39H264.5c-.568,0-.718.15-.718.585v2.231a14.429,14.429,0,0,1-1.842,7.669.855.855,0,0,1-.734.434.77.77,0,0,1-.795-.734.887.887,0,0,1,.165-.494,9.342,9.342,0,0,0,1.422-3.64c-.3.18-.6.345-.912.509a.822.822,0,0,1-.4.106.754.754,0,0,1-.72-.734.731.731,0,0,1,.479-.66,13.346,13.346,0,0,0,1.768-.943c.03-.494.03-.989.044-1.483a.782.782,0,0,1-.673.42.689.689,0,0,1-.615-.39c-.163-.329-.419-.7-.628-1.048a.65.65,0,0,1-.12-.374.712.712,0,0,1,.734-.66.757.757,0,0,1,.6.3,7.913,7.913,0,0,1,.7,1.154v-1.827c0-1.183.54-1.723,2.067-1.723h3.042v-.809c0-.418.4-.613.793-.613.4,0,.795.2.795.613v.809h4.613a.661.661,0,0,1,0,1.3H268.7a.651.651,0,0,1,.5.6.637.637,0,0,1-.061.27c-.015.046-.045.075-.058.12h3.879a.554.554,0,0,1,.537.614.562.562,0,0,1-.537.614Zm-4.613,5.932a.8.8,0,0,1,.779.749.67.67,0,0,1-.241.494,10.255,10.255,0,0,1-1.948,1.363.8.8,0,0,1-.388.1.76.76,0,0,1-.749-.749.724.724,0,0,1,.419-.644,8.229,8.229,0,0,0,1.618-1.108A.722.722,0,0,1,266.279,232.12Zm4.134-3.085c0-.211-.106-.286-.39-.286h-2.607c-.3,0-.388.075-.388.286v.3h3.385Zm-.39,1.827c.285,0,.39-.075.39-.286v-.315h-3.385v.315c.014.255.163.286.388.286Zm.269-3.161a1.316,1.316,0,0,1,.24.015,13.041,13.041,0,0,1-1.182-1.527h-.989a12.185,12.185,0,0,1-1.228,1.513Zm2.831,5.6a.755.755,0,0,1-.329,1.439.833.833,0,0,1-.433-.119,12.844,12.844,0,0,1-1.784-1.2.777.777,0,0,1-.3-.584.729.729,0,0,1,.734-.7.881.881,0,0,1,.524.194A11.409,11.409,0,0,0,273.123,233.3Z" transform="translate(-67.17 -221.246)" fill="#ed877c"/>
          <path id="パス_16" data-name="パス 16" d="M282.616,232.325h-3.834c-.346,0-.525-.329-.525-.659s.18-.66.525-.66h3.834v-.6c0-.42.405-.63.807-.63s.809.211.809.63v.6h3.775c.36,0,.525.329.525.66s-.164.659-.525.659h-3.775V233.6h5.422a.6.6,0,0,1,.57.673.613.613,0,0,1-.57.674H277.27a.613.613,0,0,1-.556-.674.6.6,0,0,1,.556-.673h5.347Zm-.03-10.35c0-.42.419-.614.823-.614s.824.194.824.614v.959h3.775c1.378,0,1.888.479,1.888,1.482v1.078c0,.42-.419.644-.824.644-.421,0-.839-.224-.839-.644v-.824c0-.3-.119-.419-.509-.419h-8.537c-.389,0-.526.119-.526.419v.884c0,.42-.4.644-.823.644s-.823-.224-.823-.644v-1.138c0-1,.493-1.482,1.887-1.482h3.685Zm.51,4.583c-.3.569-.615,1.124-.959,1.648,1.062-.045,2.126-.1,3.2-.18l-.314-.225a.528.528,0,0,1-.255-.449.667.667,0,0,1,.69-.629.87.87,0,0,1,.48.134,16.9,16.9,0,0,1,2.5,1.843.794.794,0,0,1,.314.6.714.714,0,0,1-.718.69.892.892,0,0,1-.585-.24c-.224-.21-.479-.42-.72-.629-2.832.314-5.511.479-8.074.554a.659.659,0,0,1-.688-.69.634.634,0,0,1,.643-.673c.585,0,1.183-.016,1.8-.03.36-.569.69-1.139.989-1.722h-1.692a.584.584,0,0,1-.555-.644.577.577,0,0,1,.555-.644h7.519a.587.587,0,0,1,.568.644.6.6,0,0,1-.568.644Z" transform="translate(-68.64 -221.256)" fill="#ed877c"/>
        </g>
      </g>
      <g id="グループ_4" data-name="グループ 4" transform="translate(46.513 0)">
        <g id="グループ_3" data-name="グループ 3">
          <path id="パス_17" data-name="パス 17" d="M108.352,211.88a.516.516,0,0,1,0,1.028H101.18c-1.211,0-1.67-.45-1.67-1.381v-6.262c0-.932.46-1.381,1.67-1.381h6.893a.517.517,0,0,1,0,1.027h-6.712c-.5,0-.653.14-.653.557v5.855c0,.418.15.556.653.556Zm-6.734-3.029a.439.439,0,0,1-.406-.483.433.433,0,0,1,.406-.482h2.409a5.36,5.36,0,0,0,.1-1.006h-1.1a6.614,6.614,0,0,1-.385.568.579.579,0,0,1-.471.245.514.514,0,0,1-.535-.482.574.574,0,0,1,.129-.353,7.023,7.023,0,0,0,.835-1.531.49.49,0,0,1,.483-.321.526.526,0,0,1,.556.482.6.6,0,0,1-.032.182c-.032.086-.075.182-.107.268h3.65a.476.476,0,0,1,0,.941h-1.873a6.35,6.35,0,0,1-.1,1.006h2.836c.278,0,.406.236.406.482a.432.432,0,0,1-.406.483h-2.569a4.638,4.638,0,0,0,2.108,1.552.565.565,0,0,1-.15,1.114.8.8,0,0,1-.257-.054,5.848,5.848,0,0,1-2.515-2.044,5.052,5.052,0,0,1-2.387,2.119.648.648,0,0,1-.267.064.555.555,0,0,1-.546-.546.543.543,0,0,1,.354-.493,3.682,3.682,0,0,0,1.937-1.712Z" transform="translate(-99.51 -203.21)" fill="#ed877c"/>
          <path id="パス_18" data-name="パス 18" d="M118.289,206.677a3.9,3.9,0,0,0,.546.567c.118-.108.246-.214.385-.354a.441.441,0,0,1,.321-.139.51.51,0,0,1,.493.472.422.422,0,0,1-.161.32c-.1.086-.2.182-.31.267a4.955,4.955,0,0,0,.675.375.528.528,0,0,1-.172,1.017.5.5,0,0,1-.256-.075,6.7,6.7,0,0,1-.9-.589v1.338c0,.653-.343.889-1.05.889h-.536v1.391c0,.781-.342,1.1-1.177,1.1a2.724,2.724,0,0,1-.631-.064.517.517,0,0,1,.171-1.017,2.208,2.208,0,0,0,.353.043c.14,0,.172-.043.172-.2v-1.253h-.6c-.706,0-1.049-.236-1.049-.889v-1.145c-.182.139-.374.278-.556.406a.581.581,0,0,1-.321.109.445.445,0,0,1-.45-.44.494.494,0,0,1,.257-.418,6.079,6.079,0,0,0,.674-.5c-.119-.108-.236-.193-.332-.268a.406.406,0,0,1-.182-.331.476.476,0,0,1,.461-.45.524.524,0,0,1,.267.086,2.589,2.589,0,0,1,.439.332c.161-.193.321-.375.471-.578h-1.253a.4.4,0,0,1-.385-.439.4.4,0,0,1,.385-.44h1.809a3.825,3.825,0,0,0,.213-.428.529.529,0,0,1,.29-.277h-2.634c-.407,0-.514.107-.514.417v1.595a10.293,10.293,0,0,1-1.317,5.481.609.609,0,0,1-.524.311.55.55,0,0,1-.567-.526.624.624,0,0,1,.118-.352,6.692,6.692,0,0,0,1.016-2.6c-.213.129-.428.246-.653.363a.577.577,0,0,1-.288.075.538.538,0,0,1-.515-.524.522.522,0,0,1,.343-.471,9.459,9.459,0,0,0,1.263-.675c.022-.353.022-.706.032-1.06a.558.558,0,0,1-.482.3.491.491,0,0,1-.439-.278c-.118-.235-.3-.5-.45-.75a.461.461,0,0,1-.085-.267.509.509,0,0,1,.524-.471.539.539,0,0,1,.429.214,5.882,5.882,0,0,1,.5.825v-1.306c0-.846.385-1.232,1.477-1.232h2.173v-.577c0-.3.289-.439.567-.439s.567.139.567.439v.577h3.3a.472.472,0,0,1,0,.932h-3.468a.463.463,0,0,1,.354.428.451.451,0,0,1-.043.192c-.011.033-.032.054-.043.086h2.772a.4.4,0,0,1,.385.44.4.4,0,0,1-.385.439Zm-3.3,4.239a.571.571,0,0,1,.556.536.48.48,0,0,1-.172.352,7.377,7.377,0,0,1-1.391.975.578.578,0,0,1-.278.075.545.545,0,0,1-.536-.536.517.517,0,0,1,.3-.461,5.9,5.9,0,0,0,1.155-.792A.519.519,0,0,1,114.992,210.917Zm2.954-2.205c0-.151-.075-.2-.278-.2H115.8c-.213,0-.277.054-.277.2v.213h2.418Zm-.278,1.306c.2,0,.278-.053.278-.2v-.224h-2.418v.224c.01.182.117.2.277.2Zm.192-2.259a.982.982,0,0,1,.171.01,9.245,9.245,0,0,1-.846-1.091h-.707a8.684,8.684,0,0,1-.877,1.081Zm2.023,4a.54.54,0,0,1-.235,1.028.6.6,0,0,1-.311-.085,9.253,9.253,0,0,1-1.274-.857.554.554,0,0,1-.214-.417.522.522,0,0,1,.525-.5.625.625,0,0,1,.374.14A8.111,8.111,0,0,0,119.883,211.761Z" transform="translate(-100.472 -203.145)" fill="#ed877c"/>
          <path id="パス_19" data-name="パス 19" d="M124.261,207.034a.646.646,0,0,1,.183.429.6.6,0,0,1-.6.578.546.546,0,0,1-.407-.183,10.472,10.472,0,0,0-.9-.835.516.516,0,0,1-.224-.406.581.581,0,0,1,.6-.536.667.667,0,0,1,.375.118A5.586,5.586,0,0,1,124.261,207.034Zm.236,2.034a.589.589,0,0,1,.631.546.573.573,0,0,1-.032.182,13.269,13.269,0,0,1-1.3,2.858.668.668,0,0,1-.578.333.565.565,0,0,1-.6-.525.624.624,0,0,1,.118-.352,12.708,12.708,0,0,0,1.21-2.666A.535.535,0,0,1,124.5,209.068Zm.535-4.6a.629.629,0,0,1,.182.427.589.589,0,0,1-.578.568.58.58,0,0,1-.418-.2,11.384,11.384,0,0,0-.867-.814.53.53,0,0,1-.213-.4.58.58,0,0,1,.6-.525.651.651,0,0,1,.374.13A5.95,5.95,0,0,1,125.033,204.466Zm6.048.878a.517.517,0,0,1,0,1.027h-1.927v1.542h2.612a.517.517,0,0,1,0,1.027H128.64a20.874,20.874,0,0,1-1.082,2.58c.739-.1,1.488-.193,2.227-.321-.172-.214-.342-.428-.5-.621a.543.543,0,0,1-.139-.342.555.555,0,0,1,.567-.514.657.657,0,0,1,.471.214,19.36,19.36,0,0,1,1.628,2.023.581.581,0,0,1,.118.353.624.624,0,0,1-.631.578.655.655,0,0,1-.546-.321c-.085-.151-.192-.31-.31-.482a35.9,35.9,0,0,1-4.667.739.561.561,0,0,1-.652-.567.531.531,0,0,1,.513-.546c.193-.011.386-.032.589-.054.2-.4.418-.8.6-1.21a15.058,15.058,0,0,0,.588-1.509h-1.82a.517.517,0,0,1,0-1.027H128v-1.542H126.22a.517.517,0,0,1,0-1.027H128v-1.52a.582.582,0,0,1,1.156,0v1.52Z" transform="translate(-101.51 -203.159)" fill="#ed877c"/>
          <path id="パス_20" data-name="パス 20" d="M139.843,207.158a9.219,9.219,0,0,0,1.542,2.826,7.256,7.256,0,0,0,1.242,1.188,9.12,9.12,0,0,0,.824.535.63.63,0,0,1,.365.557.626.626,0,0,1-.942.546,8.7,8.7,0,0,1-3.9-5.053,7.741,7.741,0,0,1-1.306,2.783,9.14,9.14,0,0,1-2.687,2.366.744.744,0,0,1-.374.108.575.575,0,0,1-.567-.589.587.587,0,0,1,.32-.525,7.792,7.792,0,0,0,2.388-2.066c.92-1.253,1.423-2.868,1.423-5.695a.625.625,0,0,1,1.231,0c0,.4-.011.771-.032,1.124A12.958,12.958,0,0,0,139.843,207.158Z" transform="translate(-102.539 -203.187)" fill="#ed877c"/>
          <path id="パス_21" data-name="パス 21" d="M147.55,212.845c0,.3-.277.449-.556.449s-.567-.15-.567-.449v-3.383c-.247.2-.493.385-.739.557a.611.611,0,0,1-.353.117.531.531,0,0,1-.515-.525.564.564,0,0,1,.279-.471,7.15,7.15,0,0,0,2.429-2.7.335.335,0,0,0,.032-.118c0-.075-.064-.107-.193-.107h-1.906c-.267,0-.4-.257-.4-.515s.128-.5.4-.5h.964v-1.477c0-.3.278-.439.567-.439s.556.139.556.439V205.2h.311c.61,0,.952.278.952.771a1.56,1.56,0,0,1-.139.6,6.958,6.958,0,0,1-1.039,1.659,6.96,6.96,0,0,1,1.242.749.569.569,0,0,1,.258.45.519.519,0,0,1-.5.514.553.553,0,0,1-.354-.14,6.63,6.63,0,0,0-.728-.5Zm3.608-4.624h-1.542a.5.5,0,0,1-.471-.547.494.494,0,0,1,.471-.545h1.542v-3.136a.6.6,0,0,1,1.2,0v3.136h1.734a.488.488,0,0,1,.472.545.494.494,0,0,1-.472.547h-1.734v3.468h2.066a.487.487,0,0,1,.471.546.493.493,0,0,1-.471.546h-5.471a.5.5,0,0,1-.47-.546.493.493,0,0,1,.47-.546h2.206Z" transform="translate(-103.484 -203.157)" fill="#ed877c"/>
          <path id="パス_22" data-name="パス 22" d="M158.734,212.93c-1.21,0-1.659-.5-1.659-1.466v-6.1c0-.962.45-1.466,1.659-1.466h5.642c1.221,0,1.659.5,1.659,1.466v6.1c-.021,1.134-.61,1.445-1.659,1.466Zm5.406-1.049c.535,0,.707-.161.707-.589v-5.758c0-.428-.172-.589-.707-.589H158.97c-.525,0-.706.161-.706.589v5.758c.01.483.267.578.706.589Zm-4.925-4.249a.472.472,0,0,1-.46-.5.467.467,0,0,1,.46-.5h2.923v-.889a.567.567,0,0,1,1.113,0v.889h.846a.465.465,0,0,1,.46.5.46.46,0,0,1-.46.5h-.846v2.623c0,.9-.45,1.2-1.274,1.2a3.955,3.955,0,0,1-.792-.075.538.538,0,0,1,.182-1.06,2.572,2.572,0,0,0,.492.054c.2,0,.279-.054.279-.257v-2.483Zm2.013,1.253a.56.56,0,0,1-.428.931.488.488,0,0,1-.375-.171,10.083,10.083,0,0,0-.76-.76.479.479,0,0,1-.182-.365.565.565,0,0,1,.567-.535.58.58,0,0,1,.342.118A5.2,5.2,0,0,1,161.229,208.884Z" transform="translate(-104.559 -203.211)" fill="#ed877c"/>
          <path id="パス_23" data-name="パス 23" d="M171.72,206.706c-.267,0-.406-.257-.406-.515s.139-.514.4-.514h1.006v-1.916c0-.278.278-.418.546-.418s.546.14.546.418v1.916h.707c.268,0,.407.257.407.514s-.139.515-.407.515h-.707v.931a7.107,7.107,0,0,1,1.114,1.211.537.537,0,0,1,.118.32.463.463,0,0,1-.472.45.454.454,0,0,1-.385-.214,5,5,0,0,0-.375-.525v3.939a.485.485,0,0,1-.546.46.491.491,0,0,1-.546-.46v-1.5l.032-2.172a7.989,7.989,0,0,1-.7,1.455.476.476,0,0,1-.407.247.485.485,0,0,1-.482-.472.581.581,0,0,1,.1-.3,11.674,11.674,0,0,0,1.349-3.372Zm5.427,1.07a.548.548,0,0,1,.557-.407.568.568,0,0,1,.61.536.492.492,0,0,1-.022.172,24.882,24.882,0,0,1-1.221,3.426c.675-.065,1.36-.14,2.034-.247-.15-.224-.3-.449-.45-.653a.507.507,0,0,1-.1-.277.534.534,0,0,1,.546-.5.562.562,0,0,1,.461.236,11.511,11.511,0,0,1,1.273,2.044.635.635,0,0,1,.066.267.6.6,0,0,1-.589.578.516.516,0,0,1-.472-.322c-.075-.161-.15-.31-.234-.471a33.5,33.5,0,0,1-4.186.568.546.546,0,0,1-.589-.568.5.5,0,0,1,.5-.525l.515-.032A26.752,26.752,0,0,0,177.148,207.776Zm-.213-4.067a.593.593,0,0,1,.621.535.724.724,0,0,1-.022.15,10.974,10.974,0,0,1-1.489,3.307.591.591,0,0,1-.513.278.552.552,0,0,1-.578-.525.687.687,0,0,1,.129-.375,9.943,9.943,0,0,0,1.338-2.986A.508.508,0,0,1,176.934,203.709Zm4.217,3.6a.563.563,0,0,1-.578.556.667.667,0,0,1-.536-.3,12.317,12.317,0,0,1-1.669-3.232.61.61,0,0,1-.032-.182.517.517,0,0,1,.546-.492.576.576,0,0,1,.545.4,11.977,11.977,0,0,0,1.564,2.825A.732.732,0,0,1,181.152,207.305Z" transform="translate(-105.795 -203.162)" fill="#ed877c"/>
          <path id="パス_24" data-name="パス 24" d="M183.487,206.783a.458.458,0,0,1-.428-.514c0-.256.139-.514.417-.514h1.2v-1.948c0-.3.279-.439.557-.439s.557.139.557.439v1.948h.889c.278,0,.418.257.418.514s-.14.514-.418.514h-.889v.931a6.7,6.7,0,0,1,1.306,1.1.626.626,0,0,1,.16.385.509.509,0,0,1-.514.493.462.462,0,0,1-.374-.192,7.963,7.963,0,0,0-.578-.61v3.94a.563.563,0,0,1-1.114,0V211.32l.043-2.312a9.454,9.454,0,0,1-.92,1.735.539.539,0,0,1-.439.256.518.518,0,0,1-.513-.5.475.475,0,0,1,.1-.3,11.634,11.634,0,0,0,1.584-3.415Zm6.829-2.912a.516.516,0,0,1,.567-.493.51.51,0,0,1,.567.493v2.366h1.007a.527.527,0,0,1,0,1.039h-1.007v4.517c0,.9-.32,1.359-1.359,1.359a3.792,3.792,0,0,1-.846-.075.526.526,0,0,1-.418-.546.555.555,0,0,1,.685-.567,2.97,2.97,0,0,0,.45.043c.278,0,.353-.086.353-.407v-4.324h-2.558a.529.529,0,0,1,0-1.039h2.558Zm-.7,5.417a.693.693,0,0,1,.108.353.592.592,0,0,1-1.113.256,7.889,7.889,0,0,0-.642-.931.545.545,0,0,1-.14-.352.557.557,0,0,1,.578-.5.654.654,0,0,1,.492.224A6.088,6.088,0,0,1,189.621,209.288Z" transform="translate(-106.82 -203.165)" fill="#ed877c"/>
          <path id="パス_25" data-name="パス 25" d="M199.335,203.652a.584.584,0,0,1,1.146,0v.406h2.3a.447.447,0,0,1,.45.482.453.453,0,0,1-.45.483h-2.3v.556h3.747a.495.495,0,0,1,0,.985H195.2a.5.5,0,0,1,0-.985h1.628v-1.445a.584.584,0,0,1,1.145,0v1.445h1.359Zm3.33,3.714a.59.59,0,0,1,1.156,0v4.378c0,.9-.375,1.348-1.52,1.348h-5.2c-1.146,0-1.52-.45-1.52-1.348v-4.367c0-.311.288-.461.578-.461s.577.15.577.461v4.239c0,.4.119.515.556.515h4.817c.44,0,.557-.118.557-.515Zm-2.472,3.65v.515c0,.277-.258.417-.515.417s-.514-.14-.514-.417v-.515l.032-.717a8.068,8.068,0,0,1-1.5,1.21.58.58,0,0,1-.3.1.462.462,0,0,1-.449-.461.443.443,0,0,1,.246-.385,6.884,6.884,0,0,0,1.509-1.2h-1.209a.424.424,0,0,1,0-.845h1.669v-1.521c0-.278.256-.417.514-.417s.515.139.515.417v1.521H201.9a.423.423,0,0,1,0,.845h-1.3a8.019,8.019,0,0,0,1.52.963.509.509,0,0,1,.311.461.5.5,0,0,1-.483.5.663.663,0,0,1-.288-.086,6.952,6.952,0,0,1-1.51-1.135Zm-2.8-3.489a.487.487,0,0,1,.5-.44.526.526,0,0,1,.4.183,3.664,3.664,0,0,1,.406.545.534.534,0,0,1,.086.258.518.518,0,0,1-.525.481.441.441,0,0,1-.385-.224c-.108-.172-.225-.342-.4-.567A.355.355,0,0,1,197.4,207.526Zm4.1-.482a.474.474,0,0,1,.493.439.385.385,0,0,1-.053.2,4.022,4.022,0,0,1-.472.7.464.464,0,0,1-.363.182.48.48,0,0,1-.483-.439.463.463,0,0,1,.1-.268,5.775,5.775,0,0,0,.407-.6A.412.412,0,0,1,201.5,207.044Z" transform="translate(-107.865 -203.148)" fill="#ed877c"/>
          <path id="パス_26" data-name="パス 26" d="M208.318,209.33a8.3,8.3,0,0,1-.91,1.627.562.562,0,0,1-.461.267.484.484,0,0,1-.482-.471.545.545,0,0,1,.108-.31,11.912,11.912,0,0,0,1.595-3.287h-1.146c-.278,0-.406-.256-.406-.513s.128-.5.395-.5h1.264v-.963c-.31.064-.61.118-.9.15a.494.494,0,0,1-.567-.514.481.481,0,0,1,.418-.492,12.551,12.551,0,0,0,2.622-.74.682.682,0,0,1,.235-.054.551.551,0,0,1,.515.578.487.487,0,0,1-.311.472c-.3.118-.6.224-.91.32v1.243h1.027c.279,0,.407.256.407.5s-.128.513-.407.513h-1.027v.621a5.893,5.893,0,0,1,1.2,1.017.531.531,0,0,1,.151.363.506.506,0,0,1-.494.493.481.481,0,0,1-.375-.193,6.883,6.883,0,0,0-.481-.514v3.95a.491.491,0,0,1-.546.449c-.277,0-.557-.15-.557-.449v-1.2Zm7.6-.6a.515.515,0,0,1,.6.556.467.467,0,0,1-.374.481l-.985.215v2.793a.592.592,0,0,1-1.167,0V210.25l-2.869.631a.531.531,0,0,1-.6-.578.448.448,0,0,1,.364-.471l3.1-.685v-5.3a.592.592,0,0,1,1.167,0V208.9Zm-2.879-1.071a.567.567,0,0,1,.182.407.586.586,0,0,1-.567.568.56.56,0,0,1-.4-.182c-.256-.246-.6-.546-.856-.749a.5.5,0,0,1-.215-.4.566.566,0,0,1,.568-.536.589.589,0,0,1,.342.107A6.424,6.424,0,0,1,213.039,207.659Zm.386-2.248a.594.594,0,0,1,.171.4.574.574,0,0,1-.556.557.59.59,0,0,1-.418-.182c-.257-.246-.566-.515-.814-.717a.5.5,0,0,1-.2-.4.559.559,0,0,1,.568-.536.638.638,0,0,1,.342.107A6.847,6.847,0,0,1,213.425,205.411Z" transform="translate(-108.892 -203.164)" fill="#ed877c"/>
          <path id="パス_27" data-name="パス 27" d="M227.551,211.88a.516.516,0,0,1,0,1.028h-7.171c-1.21,0-1.67-.45-1.67-1.381v-6.262c0-.932.461-1.381,1.67-1.381h6.893a.517.517,0,0,1,0,1.027h-6.712c-.5,0-.653.14-.653.557v5.855c0,.418.15.556.653.556Zm-6.734-3.029a.439.439,0,0,1-.406-.483.433.433,0,0,1,.406-.482h2.409a5.286,5.286,0,0,0,.1-1.006h-1.1a6.6,6.6,0,0,1-.384.568.582.582,0,0,1-.472.245.514.514,0,0,1-.536-.482.57.57,0,0,1,.13-.353,7.064,7.064,0,0,0,.835-1.531.488.488,0,0,1,.482-.321.525.525,0,0,1,.556.482.574.574,0,0,1-.032.182c-.032.086-.075.182-.107.268h3.65a.476.476,0,0,1,0,.941h-1.873a6.348,6.348,0,0,1-.1,1.006h2.836c.278,0,.406.236.406.482a.432.432,0,0,1-.406.483H224.64a4.638,4.638,0,0,0,2.108,1.552.578.578,0,0,1,.429.535.584.584,0,0,1-.578.578.8.8,0,0,1-.257-.054,5.853,5.853,0,0,1-2.515-2.044,5.048,5.048,0,0,1-2.387,2.119.644.644,0,0,1-.267.064.555.555,0,0,1-.547-.546.545.545,0,0,1,.354-.493,3.678,3.678,0,0,0,1.937-1.712Z" transform="translate(-109.966 -203.21)" fill="#ed877c"/>
          <path id="パス_28" data-name="パス 28" d="M232.16,203.656c.75,0,1.125.331,1.125.91a2.036,2.036,0,0,1-.075.482,14.141,14.141,0,0,1-.761,2.076,3.223,3.223,0,0,1,.91,2.249c0,1.209-.461,1.648-1.306,1.648a1.945,1.945,0,0,1-.364-.021.45.45,0,0,1-.364-.288v2.183c0,.278-.278.428-.567.428s-.567-.15-.567-.428v-8.2c0-.717.311-1.038,1.1-1.038Zm-.62,1.027c-.172,0-.214.064-.214.256v5.3a.42.42,0,0,1,.45-.311,1.092,1.092,0,0,0,.172.011c.224,0,.288-.107.288-.567a2.642,2.642,0,0,0-.652-1.67.665.665,0,0,1-.2-.471,1.117,1.117,0,0,1,.129-.472,10.651,10.651,0,0,0,.62-1.82.755.755,0,0,0,.022-.128c0-.1-.065-.129-.2-.129Zm6.219,7.214c0,.193.086.236.375.236.374,0,.449-.129.482-.567a.56.56,0,0,1,1.113.086c-.075,1.071-.45,1.488-1.67,1.488-1.092,0-1.413-.246-1.413-.985v-2.836h-.62a4.256,4.256,0,0,1-2.634,3.9.561.561,0,0,1-.224.043.543.543,0,0,1-.525-.546.537.537,0,0,1,.352-.493,3.124,3.124,0,0,0,1.885-2.9h-.835a.454.454,0,0,1-.429-.5.448.448,0,0,1,.429-.5h5.1a.462.462,0,0,1,.439.5.457.457,0,0,1-.439.5h-1.381Zm-1.884-8.092c0-.3.289-.45.588-.45s.578.15.578.45v.867h1.3c.941,0,1.21.4,1.21,1.07v.567c0,.29-.279.44-.567.44s-.567-.15-.567-.44v-.4c0-.2-.086-.258-.342-.258h-3.062c-.257,0-.342.054-.342.258v.47c0,.29-.279.44-.557.44s-.567-.15-.567-.44v-.642c0-.673.256-1.07,1.2-1.07h1.134Zm-.717,3.693a.461.461,0,0,1-.428-.5.456.456,0,0,1,.428-.5h2.782a.455.455,0,0,1,.429.5.449.449,0,0,1-.429.5Z" transform="translate(-110.973 -203.164)" fill="#ed877c"/>
        </g>
      </g>
    </g>
  </g>
</svg>
