<svg xmlns="http://www.w3.org/2000/svg" width="53.978" height="53.98" viewBox="0 0 53.978 53.98">
  <g id="グループ_1141" data-name="グループ 1141" transform="translate(-932.975 -20.655)">
    <path id="パス_29" data-name="パス 29" d="M170.409,171.038a5.633,5.633,0,0,1-.852-.066,4.5,4.5,0,0,1-3.89-3.359.888.888,0,1,1,1.744-.339,2.737,2.737,0,0,0,2.415,1.942,3.273,3.273,0,0,0,3.463-1.68.888.888,0,0,1,1.562.846A4.965,4.965,0,0,1,170.409,171.038Z" transform="translate(791.602 -107.164)" fill="#ed877c"/>
    <circle id="楕円形_1" data-name="楕円形 1" cx="1.433" cy="1.433" r="1.433" transform="translate(955.357 52.743)" fill="#ed877c"/>
    <circle id="楕円形_2" data-name="楕円形 2" cx="1.433" cy="1.433" r="1.433" transform="translate(965.104 51.415)" fill="#ed877c"/>
    <circle id="楕円形_3" data-name="楕円形 3" cx="3.065" cy="3.065" r="3.065" transform="translate(947.272 57.831)" fill="#f7c5bc"/>
    <circle id="楕円形_4" data-name="楕円形 4" cx="2.869" cy="2.869" r="2.869" transform="translate(969.045 55.429)" fill="#f7c5bc"/>
    <path id="パス_30" data-name="パス 30" d="M157.463,128.844a3.094,3.094,0,1,1,3.025-2.448h0A3.1,3.1,0,0,1,157.463,128.844Zm0-4.351a1.259,1.259,0,1,0,.263.028A1.259,1.259,0,0,0,157.463,124.492Zm2.128,1.712h0Z" transform="translate(795.975 -90.146)" fill="#ed877c"/>
    <path id="パス_31" data-name="パス 31" d="M156.754,103.565a26.772,26.772,0,0,0-17.544,3.526,7.146,7.146,0,1,0-9.792,10.057,27.018,27.018,0,0,0,7.369,34.721c.025.019.047.039.072.058a.152.152,0,0,0,.017.01,26.832,26.832,0,0,0,12.362,5.072,27.385,27.385,0,0,0,3.815.268,26.988,26.988,0,0,0,3.7-53.712Zm-28.595,6.511a5.309,5.309,0,0,1,6.307-4.087,5.27,5.27,0,0,1,3.2,2.1c.051.07.1.138.152.212a5.343,5.343,0,0,1,.66,1.461,5.315,5.315,0,0,1-6.23,6.626c-.063-.013-.122-.034-.185-.049a5.3,5.3,0,0,1-3.9-6.258Zm2.907,32.517a25.177,25.177,0,0,1,0-24.635,7.144,7.144,0,0,0,9-9.239,24.889,24.889,0,0,1,12.877-3.586,25.614,25.614,0,0,1,3.555.25,25.188,25.188,0,0,1,21.57,23l-23.307-21.128a.918.918,0,1,0-1.234,1.361l14.021,12.711a.918.918,0,0,0-.146.139l-2.671,3.214a3.067,3.067,0,0,0-.522.93c-.23-.079-.459-.161-.7-.231-3.41-1-6.049-.031-8.375.827a17.485,17.485,0,0,1-3.209.963,14.988,14.988,0,0,1-4.814-.3c-3.3-.552-7.046-1.18-11.4,1.937a12.56,12.56,0,0,0-5,10.269A16.058,16.058,0,0,0,131.066,142.594Zm36.769,7.989a25.152,25.152,0,0,1-29.945-.182,14.2,14.2,0,0,1-5.34-11.3,10.746,10.746,0,0,1,4.232-8.8c3.735-2.674,6.793-2.161,10.029-1.619a16.534,16.534,0,0,0,5.413.3,19.075,19.075,0,0,0,3.551-1.053c2.258-.833,4.392-1.622,7.22-.788.4.119.782.252,1.149.394a3.073,3.073,0,0,0,2.658,2.2,3.066,3.066,0,0,0,2.656,2.206,2.829,2.829,0,0,0,1.266,1.707,14.637,14.637,0,0,1,1.2,4.32C172.519,142.939,170.8,148.073,167.835,150.583Zm4.255-18.3a1.234,1.234,0,0,1-.47-.242,1.25,1.25,0,0,1-.443-1.025.926.926,0,0,0-.051-.325.911.911,0,0,0-.279-.419.9.9,0,0,0-.082-.053.91.91,0,0,0-.71-.136,1.235,1.235,0,0,1-1.533-1.274.919.919,0,0,0-1.122-.932,1.244,1.244,0,0,1-1.538-1.1,1.27,1.27,0,0,1,.045-.467,1.24,1.24,0,0,1,.238-.455l2.671-3.215a.924.924,0,0,0,.069-.1l7,6.347-2.489,3a1.249,1.249,0,0,1-.854.448A1.267,1.267,0,0,1,172.09,132.285Zm5.809,1.505a25.005,25.005,0,0,1-4.88,11.719,18.754,18.754,0,0,0,.725-7.759,16.573,16.573,0,0,0-.854-3.629,3.063,3.063,0,0,0,1.92-1.069l2.438-2.934.884.8A25.29,25.29,0,0,1,177.9,133.79Z" transform="translate(806.97 -82.643)" fill="#ed877c"/>
  </g>
</svg>
