<svg xmlns="http://www.w3.org/2000/svg" width="148.736" height="20.646" viewBox="0 0 148.736 20.646">
  <g id="グループ_5" data-name="グループ 5" transform="translate(0 0)">
    <path id="パス_1" data-name="パス 1" d="M51.1,230.431c0,.271-.261.412-.523.412s-.532-.141-.532-.412v-3.187c-.191.16-.392.311-.593.452a.615.615,0,0,1-.342.121.492.492,0,0,1-.473-.5.5.5,0,0,1,.241-.423,6.236,6.236,0,0,0,2.182-2.493.359.359,0,0,0,.03-.121c0-.07-.05-.091-.171-.091H49.2c-.251,0-.372-.241-.372-.483s.121-.473.372-.473h.846v-1.377c0-.282.261-.412.532-.412s.523.13.523.412v1.377h.291c.543,0,.874.282.874.734a1.371,1.371,0,0,1-.121.523,6.217,6.217,0,0,1-.955,1.568,7.11,7.11,0,0,1,1.075.653.535.535,0,0,1,.242.422.478.478,0,0,1-.473.472.457.457,0,0,1-.312-.121,6.994,6.994,0,0,0-.623-.422Zm3.68-8.536a.53.53,0,0,1,1.045,0V223.3h.905c.824,0,1.187.382,1.187,1.1v2.644c-.02.795-.433,1.086-1.187,1.1h-.905v2.272a.53.53,0,0,1-1.045,0v-2.272h-.835c-.824,0-1.186-.382-1.186-1.1V224.4c0-.714.363-1.1,1.186-1.1h.835Zm0,3.338v-1h-.714c-.222,0-.281.08-.281.282v.723Zm0,1.981v-1.1h-1v.814c0,.2.07.282.281.282Zm1.045-1.981h1.065v-.723c0-.2-.06-.282-.281-.282h-.784Zm0,.885v1.1h.784c.221,0,.281-.08.281-.282v-.814Z" transform="translate(-48.633 -210.238)" fill="#ed877c"/>
    <path id="パス_2" data-name="パス 2" d="M66.881,227.443a6.421,6.421,0,0,1-1.186,3.429.587.587,0,0,1-.493.251.565.565,0,0,1-.582-.513.539.539,0,0,1,.13-.331,5.927,5.927,0,0,0,1.056-3.76v-1.157c0-.905.372-1.206,1.438-1.206h4.032c1,0,1.378.3,1.378,1.045v1.217a.96.96,0,0,1-.333.8,1.867,1.867,0,0,1-1.045.22Zm6.244-5.1a.457.457,0,0,1,.442.513.462.462,0,0,1-.442.513H65.193a.469.469,0,0,1-.442-.513.464.464,0,0,1,.442-.513Zm-2.042,4.112c.383,0,.463-.111.463-.352v-.613c0-.242-.08-.352-.463-.352H67.415c-.413,0-.5.091-.5.423v.895Z" transform="translate(-54.83 -210.588)" fill="#ed877c"/>
    <path id="パス_3" data-name="パス 3" d="M87.782,229.382c0,1.569-1.177,2.674-3.429,3a.484.484,0,1,1-.151-.955c1.91-.332,2.564-.975,2.564-2.041,0-.644-.463-1.146-1.458-1.146a9.866,9.866,0,0,0-3.81.985.514.514,0,0,1-.242.05.471.471,0,0,1-.472-.472.509.509,0,0,1,.342-.473,10.961,10.961,0,0,1,4.182-1C86.776,227.321,87.782,228.115,87.782,229.382Z" transform="translate(-61.096 -212.517)" fill="#ed877c"/>
    <path id="パス_4" data-name="パス 4" d="M95.573,228.685a2.71,2.71,0,0,1,.111-.754.554.554,0,0,1,.563-.4.5.5,0,0,1,.553.462.872.872,0,0,1-.02.141,2.1,2.1,0,0,0-.06.5c0,.634.341.975,2.221.975a13.794,13.794,0,0,0,2.745-.291.983.983,0,0,1,.162-.02.533.533,0,0,1,.532.553.587.587,0,0,1-.493.573,13.247,13.247,0,0,1-2.945.312C96.518,230.736,95.573,230.052,95.573,228.685Zm3.429-5a12.365,12.365,0,0,0,1.9-.131.556.556,0,0,1,.181,1.1,14.239,14.239,0,0,1-2.072.14,11.423,11.423,0,0,1-2.191-.19.551.551,0,0,1-.443-.553.544.544,0,0,1,.664-.563A9.829,9.829,0,0,0,99,223.689Z" transform="translate(-66.829 -211.026)" fill="#ed877c"/>
    <path id="パス_5" data-name="パス 5" d="M110.923,224.159a.541.541,0,0,1,.563.522.656.656,0,0,1-.041.222,10.091,10.091,0,0,1-2,3.2.612.612,0,0,1-.441.2.563.563,0,0,1-.563-.533.639.639,0,0,1,.19-.422,10.022,10.022,0,0,0,1.77-2.835A.54.54,0,0,1,110.923,224.159Zm2.8,5.3c0,.844-.4,1.277-1.356,1.277a4.317,4.317,0,0,1-.885-.1.5.5,0,0,1-.383-.513.529.529,0,0,1,.643-.553,2.827,2.827,0,0,0,.513.06c.252,0,.342-.081.342-.382v-7.239a.569.569,0,0,1,1.126,0Zm3.861-2.563a.679.679,0,0,1,.221.483.589.589,0,0,1-.573.583.565.565,0,0,1-.432-.192,12.4,12.4,0,0,1-2.051-2.885.6.6,0,0,1-.061-.251.536.536,0,0,1,.554-.5.555.555,0,0,1,.493.312A12.359,12.359,0,0,0,117.589,226.894Z" transform="translate(-71.816 -210.27)" fill="#ed877c"/>
    <path id="パス_6" data-name="パス 6" d="M127.554,227.056a.5.5,0,0,1,.543.593,4.223,4.223,0,0,1-3.4,3.157.761.761,0,0,1-.141.021.5.5,0,0,1-.493-.5.5.5,0,0,1,.413-.483,3.083,3.083,0,0,0,2.543-2.372A.508.508,0,0,1,127.554,227.056Zm-1.227-.442c0,.3-.281.452-.562.452s-.563-.151-.563-.452v-4.424c0-.3.281-.453.563-.453s.562.151.562.453Zm2.565.11c-.906,0-1.317-.3-1.317-1.1V223c0-.794.411-1.1,1.317-1.1h2.051c.9,0,1.317.3,1.317,1.1v2.634c-.02.895-.513,1.076-1.317,1.1Zm2.282-3.629c0-.211-.08-.291-.351-.291h-1.81c-.271,0-.351.08-.351.291v.754h2.512Zm-.351,2.724c.272,0,.351-.08.351-.292v-.794H128.66v.794c.01.251.13.292.351.292Zm-1.759,1.659a.555.555,0,0,1,1.086,0v1.971c0,.221.11.291.764.291.945,0,1.116-.08,1.176-.653a.542.542,0,0,1,1.076.1c-.1,1.146-.6,1.478-2.283,1.478-1.527,0-1.819-.261-1.819-1.005Z" transform="translate(-77.874 -210.352)" fill="#ed877c"/>
    <path id="パス_7" data-name="パス 7" d="M144,221.737a.548.548,0,0,1,1.075,0v.382h2.162a.419.419,0,0,1,.423.453.424.424,0,0,1-.423.453h-2.162v.523h3.519a.464.464,0,0,1,0,.925h-8.474a.465.465,0,0,1,0-.925h1.528V222.19a.548.548,0,0,1,1.075,0v1.358H144Zm3.126,3.489a.554.554,0,0,1,1.086,0v4.113c0,.844-.351,1.267-1.428,1.267h-4.885c-1.077,0-1.428-.423-1.428-1.267v-4.1c0-.292.271-.432.543-.432s.543.14.543.432v3.982c0,.372.11.483.523.483H146.6c.413,0,.523-.111.523-.483Zm-2.323,3.429v.483a.43.43,0,0,1-.482.393c-.242,0-.483-.131-.483-.393v-.483l.03-.674a7.552,7.552,0,0,1-1.407,1.137.545.545,0,0,1-.282.09.433.433,0,0,1-.423-.432.419.419,0,0,1,.231-.362,6.466,6.466,0,0,0,1.419-1.126h-1.137a.371.371,0,0,1-.363-.4.367.367,0,0,1,.363-.391h1.568v-1.428c0-.262.241-.392.483-.392s.482.13.482.392v1.428h1.609a.4.4,0,0,1,0,.794h-1.216a7.525,7.525,0,0,0,1.428.9.475.475,0,0,1,.29.432.467.467,0,0,1-.452.473.632.632,0,0,1-.271-.08,6.546,6.546,0,0,1-1.418-1.066Zm-2.624-3.278a.456.456,0,0,1,.472-.411.492.492,0,0,1,.372.171,3.431,3.431,0,0,1,.383.513.442.442,0,0,1-.413.694.416.416,0,0,1-.363-.211c-.1-.161-.211-.321-.372-.533A.335.335,0,0,1,142.175,225.376Zm3.851-.452a.445.445,0,0,1,.462.412.363.363,0,0,1-.05.192,3.9,3.9,0,0,1-.441.653.438.438,0,0,1-.342.171.451.451,0,0,1-.453-.412.431.431,0,0,1,.091-.251,5.606,5.606,0,0,0,.383-.563A.387.387,0,0,1,146.026,224.924Z" transform="translate(-83.936 -210.181)" fill="#ed877c"/>
    <path id="パス_8" data-name="パス 8" d="M157.773,227.152a7.789,7.789,0,0,1-.854,1.528.529.529,0,0,1-.433.251.455.455,0,0,1-.452-.443.508.508,0,0,1,.1-.291,11.229,11.229,0,0,0,1.5-3.087h-1.077c-.26,0-.382-.241-.382-.483s.121-.473.372-.473h1.186v-.9c-.291.06-.574.11-.846.14a.465.465,0,0,1-.532-.483.452.452,0,0,1,.393-.462,11.7,11.7,0,0,0,2.462-.694.628.628,0,0,1,.222-.05.517.517,0,0,1,.483.543.455.455,0,0,1-.292.442c-.281.11-.563.211-.855.3v1.166h.965c.262,0,.383.241.383.473s-.121.483-.383.483h-.965v.583a5.544,5.544,0,0,1,1.127.955.506.506,0,0,1,.141.342.475.475,0,0,1-.463.462.45.45,0,0,1-.351-.181c-.132-.161-.292-.321-.453-.483v3.71a.461.461,0,0,1-.512.423c-.262,0-.523-.141-.523-.423v-1.125Zm7.139-.563a.483.483,0,0,1,.562.522.44.44,0,0,1-.352.453l-.925.2v2.624a.556.556,0,0,1-1.1,0v-2.373l-2.695.593a.5.5,0,0,1-.563-.543.422.422,0,0,1,.342-.443l2.916-.644V222a.556.556,0,0,1,1.1,0v4.746Zm-2.705-1.006a.531.531,0,0,1,.171.382.55.55,0,0,1-.532.533.525.525,0,0,1-.372-.171c-.242-.231-.563-.513-.805-.7a.473.473,0,0,1-.2-.372.531.531,0,0,1,.533-.5.555.555,0,0,1,.322.1A6.045,6.045,0,0,1,162.207,225.583Zm.363-2.111a.558.558,0,0,1,.161.372.54.54,0,0,1-.524.523.549.549,0,0,1-.391-.171c-.241-.231-.533-.483-.764-.674a.47.47,0,0,1-.191-.372.524.524,0,0,1,.532-.5.6.6,0,0,1,.322.1A6.315,6.315,0,0,1,162.569,223.472Z" transform="translate(-90.266 -210.276)" fill="#ed877c"/>
    <path id="パス_9" data-name="パス 9" d="M175.481,228.489a.952.952,0,0,1-.955.945.932.932,0,0,1-.945-.945.953.953,0,0,1,.945-.955A.974.974,0,0,1,175.481,228.489Z" transform="translate(-97.068 -212.599)" fill="#ed877c"/>
    <path id="パス_10" data-name="パス 10" d="M184.017,225.236v-.07a7.523,7.523,0,0,1-.845.764.508.508,0,0,1-.311.121.456.456,0,0,1-.363-.181.348.348,0,0,1,.011.111.435.435,0,0,1-.413.473h-.653a9.628,9.628,0,0,1-.171,1.2,8.762,8.762,0,0,1,1.206,1.378.57.57,0,0,1,.121.352.5.5,0,0,1-.5.5.546.546,0,0,1-.453-.272c-.181-.271-.422-.583-.664-.885a6.038,6.038,0,0,1-.945,1.75.554.554,0,0,1-.433.231.5.5,0,0,1-.513-.483.555.555,0,0,1,.141-.362,6.261,6.261,0,0,0,1.187-3.408h-.986a.434.434,0,0,1-.4-.473.428.428,0,0,1,.4-.473h1.036V223.99h-.192a6.3,6.3,0,0,1-.271.583.548.548,0,0,1-.482.3.464.464,0,0,1-.483-.453.54.54,0,0,1,.07-.261,7.976,7.976,0,0,0,.724-2.171.457.457,0,0,1,.482-.382.479.479,0,0,1,.5.583,7.54,7.54,0,0,1-.222.895h1.428a.417.417,0,0,1,.413.453.423.423,0,0,1-.413.453h-.543v1.517h.614a.47.47,0,0,1,.312.141l-.01-.061a.492.492,0,0,1,.221-.4,6.62,6.62,0,0,0,1.056-1.005H182.9a.426.426,0,0,1,0-.844h1.389c.08-.141.16-.271.231-.413-.372.031-.744.05-1.086.071a.422.422,0,0,1-.442-.443.4.4,0,0,1,.4-.412,22.332,22.332,0,0,0,3.539-.453.463.463,0,0,1,.563.463.418.418,0,0,1-.381.422c-.463.091-.976.161-1.5.231-.08.181-.171.362-.261.533h2.584a.426.426,0,0,1,0,.844h-.824a4.786,4.786,0,0,0,1.156.865.486.486,0,0,1,.282.432.5.5,0,0,1-.483.5.611.611,0,0,1-.3-.091,6.143,6.143,0,0,1-.965-.754.315.315,0,0,1,.01.1v.563c-.01.483-.3.623-.744.633h-1.306c-.5,0-.744-.2-.744-.633Zm2.935,1.5c.814,0,1.066.322,1.066.985v2.171c0,.624-.311.906-.975.906a3.165,3.165,0,0,1-.543-.041.452.452,0,0,1-.4-.462.429.429,0,0,1,.5-.453,2.73,2.73,0,0,0,.272.031c.1,0,.141-.05.141-.211v-1.819c0-.2-.061-.272-.3-.272h-2.533c-.241,0-.3.07-.3.272v2.6c0,.271-.251.4-.5.4s-.5-.131-.5-.4V227.72c0-.693.252-.985,1.107-.985ZM185,229.69c-.493,0-.7-.181-.7-.623V228.5c0-.432.211-.623.7-.623h.885c.493,0,.7.191.7.623v.563c-.011.483-.262.613-.7.623Zm-.171-5.509c-.11.161-.231.312-.352.462a1.167,1.167,0,0,1,.333-.04h1.206a1.167,1.167,0,0,1,.333.04,5.021,5.021,0,0,1-.352-.462Zm1.015,1.588c.111,0,.141-.03.141-.111v-.281c0-.081-.03-.11-.141-.11h-.863c-.111,0-.141.029-.141.11v.281c0,.091.06.111.141.111Zm-.16,3.277c.11,0,.141-.02.141-.121v-.281c0-.1-.031-.121-.141-.121h-.472c-.111,0-.141.02-.141.121v.281c0,.1.05.121.141.121Z" transform="translate(-99.181 -210.302)" fill="#ed877c"/>
    <path id="パス_11" data-name="パス 11" d="M197,225.6a.569.569,0,0,1,1.126,0v4.123h1.458v-6.133h-3.368a.47.47,0,0,1-.443-.513.464.464,0,0,1,.443-.513h7.631a.458.458,0,0,1,.443.513.463.463,0,0,1-.443.513H200.71v2.323h2.483a.458.458,0,0,1,.442.513.463.463,0,0,1-.442.513H200.71v2.785h3.5a.457.457,0,0,1,.442.512.463.463,0,0,1-.442.513h-8.365a.469.469,0,0,1-.443-.513.463.463,0,0,1,.443-.512H197Z" transform="translate(-105.526 -210.671)" fill="#ed877c"/>
    <path id="パス_12" data-name="パス 12" d="M215.537,221.737a.548.548,0,0,1,1.075,0v.382h2.162a.419.419,0,0,1,.423.453.424.424,0,0,1-.423.453h-2.162v.523h3.519a.464.464,0,0,1,0,.925h-8.474a.465.465,0,0,1,0-.925h1.528V222.19a.548.548,0,0,1,1.075,0v1.358h1.277Zm3.126,3.489a.554.554,0,0,1,1.086,0v4.113c0,.844-.352,1.267-1.428,1.267h-4.885c-1.077,0-1.428-.423-1.428-1.267v-4.1c0-.292.271-.432.543-.432s.543.14.543.432v3.982c0,.372.11.483.523.483h4.524c.413,0,.523-.111.523-.483Zm-2.323,3.429v.483a.43.43,0,0,1-.482.393c-.242,0-.483-.131-.483-.393v-.483l.03-.674A7.555,7.555,0,0,1,214,229.117a.545.545,0,0,1-.282.09.433.433,0,0,1-.423-.432.419.419,0,0,1,.231-.362,6.467,6.467,0,0,0,1.419-1.126h-1.137a.37.37,0,0,1-.362-.4.366.366,0,0,1,.362-.391h1.568v-1.428c0-.262.241-.392.483-.392s.482.13.482.392v1.428h1.609a.4.4,0,0,1,0,.794h-1.216a7.527,7.527,0,0,0,1.428.9.475.475,0,0,1,.29.432.467.467,0,0,1-.452.473.632.632,0,0,1-.271-.08,6.546,6.546,0,0,1-1.418-1.066Zm-2.624-3.278a.456.456,0,0,1,.472-.411.493.493,0,0,1,.372.171,3.431,3.431,0,0,1,.383.513.442.442,0,0,1-.413.694.416.416,0,0,1-.363-.211c-.1-.161-.211-.321-.372-.533A.335.335,0,0,1,213.716,225.376Zm3.851-.452a.445.445,0,0,1,.462.412.364.364,0,0,1-.05.192,3.9,3.9,0,0,1-.441.653.438.438,0,0,1-.342.171.451.451,0,0,1-.454-.412.431.431,0,0,1,.091-.251,5.6,5.6,0,0,0,.383-.563A.387.387,0,0,1,217.567,224.924Z" transform="translate(-111.668 -210.181)" fill="#ed877c"/>
    <path id="パス_13" data-name="パス 13" d="M229.314,227.152a7.788,7.788,0,0,1-.854,1.528.529.529,0,0,1-.433.251.455.455,0,0,1-.452-.443.508.508,0,0,1,.1-.291,11.227,11.227,0,0,0,1.5-3.087H228.1c-.26,0-.382-.241-.382-.483s.121-.473.372-.473h1.186v-.9c-.291.06-.574.11-.846.14a.465.465,0,0,1-.532-.483.452.452,0,0,1,.393-.462,11.706,11.706,0,0,0,2.462-.694.628.628,0,0,1,.222-.05.517.517,0,0,1,.483.543.455.455,0,0,1-.292.442c-.281.11-.563.211-.855.3v1.166h.965c.262,0,.383.241.383.473s-.121.483-.383.483h-.965v.583a5.544,5.544,0,0,1,1.127.955.506.506,0,0,1,.141.342.475.475,0,0,1-.463.462.45.45,0,0,1-.351-.181c-.132-.161-.292-.321-.453-.483v3.71a.461.461,0,0,1-.512.423c-.262,0-.523-.141-.523-.423v-1.125Zm7.139-.563a.483.483,0,0,1,.562.522.44.44,0,0,1-.351.453l-.925.2v2.624a.556.556,0,0,1-1.1,0v-2.373l-2.695.593a.5.5,0,0,1-.563-.543.422.422,0,0,1,.342-.443l2.916-.644V222a.556.556,0,0,1,1.1,0v4.746Zm-2.705-1.006a.531.531,0,0,1,.171.382.55.55,0,0,1-.532.533.525.525,0,0,1-.372-.171c-.242-.231-.563-.513-.805-.7a.473.473,0,0,1-.2-.372.531.531,0,0,1,.533-.5.555.555,0,0,1,.322.1A6.043,6.043,0,0,1,233.748,225.583Zm.363-2.111a.558.558,0,0,1,.161.372.54.54,0,0,1-.524.523.549.549,0,0,1-.391-.171c-.241-.231-.533-.483-.764-.674a.47.47,0,0,1-.191-.372.524.524,0,0,1,.532-.5.6.6,0,0,1,.322.1A6.316,6.316,0,0,1,234.11,223.472Z" transform="translate(-117.998 -210.276)" fill="#ed877c"/>
    <path id="パス_14" data-name="パス 14" d="M244.093,224.358a.515.515,0,0,1,0-1h3.136a.512.512,0,0,1,0,1Zm1.146,6.344c-.764,0-1.015-.3-1.015-.925v-1.217c0-.623.251-.925,1.015-.925h1.036c.764,0,1.015.3,1.015.925v1.217c-.011.713-.332.915-1.015.925Zm-.573-7.812a.426.426,0,0,1-.383-.473c0-.241.132-.472.383-.472h2.091a.42.42,0,0,1,.393.472.426.426,0,0,1-.393.473Zm0,2.876a.426.426,0,0,1-.383-.473c0-.241.132-.473.383-.473h2.091a.42.42,0,0,1,.393.473.426.426,0,0,1-.393.473Zm0,1.407a.425.425,0,0,1-.383-.472c0-.241.132-.473.383-.473h2.091a.42.42,0,0,1,.393.473.425.425,0,0,1-.393.472Zm1.408,2.624c.16,0,.21-.06.21-.231v-.795c0-.17-.05-.231-.21-.231h-.634c-.16,0-.211.061-.211.231v.795c0,.161.04.231.211.231Zm6.967-5.007a.574.574,0,0,1,.231.453.566.566,0,0,1-.553.563.638.638,0,0,1-.432-.192,11.966,11.966,0,0,1-2.021-2.392,10.008,10.008,0,0,1-1.88,2.323.614.614,0,0,1-.413.17.5.5,0,0,1-.512-.483.567.567,0,0,1,.222-.432,8.844,8.844,0,0,0,2.081-2.855.527.527,0,0,1,.493-.322.515.515,0,0,1,.543.472.4.4,0,0,1-.031.151A10.829,10.829,0,0,0,253.041,224.79Zm-.694,3.007a.539.539,0,0,1,.522.522.471.471,0,0,1-.21.382,11.882,11.882,0,0,1-4.223,1.991.806.806,0,0,1-.141.02.5.5,0,0,1-.08-.985,11.012,11.012,0,0,0,3.8-1.8A.513.513,0,0,1,252.347,227.8Zm-1.75-3.067a.536.536,0,0,1,.524.492.445.445,0,0,1-.141.322,7.84,7.84,0,0,1-2.172,1.6.609.609,0,0,1-.251.061.468.468,0,0,1-.463-.463.45.45,0,0,1,.282-.412,6.611,6.611,0,0,0,1.86-1.418A.44.44,0,0,1,250.6,224.73Zm.865,1.5a.536.536,0,0,1,.523.5.47.47,0,0,1-.16.331,9.422,9.422,0,0,1-3.076,1.83.687.687,0,0,1-.192.03.464.464,0,0,1-.463-.473.479.479,0,0,1,.333-.452,8.138,8.138,0,0,0,2.7-1.629A.467.467,0,0,1,251.461,226.228Z" transform="translate(-124.245 -210.308)" fill="#ed877c"/>
    <path id="パス_15" data-name="パス 15" d="M267.3,224.564a3.688,3.688,0,0,0,.512.533c.111-.1.232-.2.363-.332a.411.411,0,0,1,.3-.13.479.479,0,0,1,.463.442.4.4,0,0,1-.151.3c-.091.081-.192.171-.292.251a4.8,4.8,0,0,0,.634.352.5.5,0,0,1-.161.955.474.474,0,0,1-.242-.071,6.424,6.424,0,0,1-.844-.552v1.257c0,.614-.322.835-.985.835h-.5v1.307c0,.734-.322,1.035-1.106,1.035a2.574,2.574,0,0,1-.592-.06.485.485,0,0,1,.16-.955,2.167,2.167,0,0,0,.331.04c.132,0,.161-.04.161-.19V228.4h-.563c-.664,0-.986-.221-.986-.835v-1.076c-.171.131-.352.261-.522.382a.537.537,0,0,1-.3.1.416.416,0,0,1-.422-.412.463.463,0,0,1,.242-.392,5.756,5.756,0,0,0,.633-.473c-.11-.1-.222-.181-.311-.251a.386.386,0,0,1-.171-.312.447.447,0,0,1,.432-.423.492.492,0,0,1,.251.081,2.389,2.389,0,0,1,.413.311c.151-.181.3-.352.442-.543h-1.177a.378.378,0,0,1-.361-.412.373.373,0,0,1,.361-.412h1.7a3.728,3.728,0,0,0,.2-.4.5.5,0,0,1,.271-.261H263c-.381,0-.482.1-.482.393v1.5a9.685,9.685,0,0,1-1.236,5.147.574.574,0,0,1-.493.291.517.517,0,0,1-.533-.493.6.6,0,0,1,.111-.331,6.271,6.271,0,0,0,.955-2.443c-.2.121-.4.231-.612.342a.552.552,0,0,1-.271.071.506.506,0,0,1-.483-.493.49.49,0,0,1,.321-.443,8.964,8.964,0,0,0,1.187-.633c.02-.332.02-.664.029-1a.525.525,0,0,1-.452.282.462.462,0,0,1-.413-.261c-.11-.221-.281-.472-.422-.7a.436.436,0,0,1-.08-.251.478.478,0,0,1,.493-.443.508.508,0,0,1,.4.2,5.311,5.311,0,0,1,.472.775v-1.227c0-.794.362-1.157,1.388-1.157h2.042v-.543c0-.28.271-.411.532-.411s.533.131.533.411v.543h3.1a.443.443,0,0,1,0,.875h-3.258a.437.437,0,0,1,.333.4.428.428,0,0,1-.041.181c-.01.031-.03.05-.039.081h2.6a.372.372,0,0,1,.361.412.377.377,0,0,1-.361.412Zm-3.1,3.982a.535.535,0,0,1,.523.5.45.45,0,0,1-.162.331,6.885,6.885,0,0,1-1.307.915.534.534,0,0,1-.26.07.51.51,0,0,1-.5-.5.486.486,0,0,1,.281-.432,5.524,5.524,0,0,0,1.086-.744A.485.485,0,0,1,264.2,228.545Zm2.775-2.071c0-.141-.071-.192-.262-.192h-1.75c-.2,0-.26.05-.26.192v.2h2.272Zm-.262,1.227c.191,0,.262-.05.262-.192V227.3H264.7v.211c.009.171.11.192.26.192Zm.181-2.122a.883.883,0,0,1,.161.01,8.752,8.752,0,0,1-.794-1.025H265.6a8.18,8.18,0,0,1-.824,1.015Zm1.9,3.76a.507.507,0,0,1-.221.966.559.559,0,0,1-.291-.08,8.625,8.625,0,0,1-1.2-.8.522.522,0,0,1-.2-.392.49.49,0,0,1,.493-.473.592.592,0,0,1,.352.13A7.661,7.661,0,0,0,268.795,229.339Z" transform="translate(-130.552 -210.162)" fill="#ed877c"/>
    <path id="パス_16" data-name="パス 16" d="M280.676,228.72H278.1c-.232,0-.353-.221-.353-.442s.121-.443.353-.443h2.574v-.4c0-.282.272-.423.542-.423s.543.141.543.423v.4h2.534c.242,0,.352.221.352.443s-.11.442-.352.442h-2.534v.855H285.4a.406.406,0,0,1,.383.452.412.412,0,0,1-.383.453h-8.313a.411.411,0,0,1-.373-.453.405.405,0,0,1,.373-.452h3.589Zm-.02-6.947c0-.282.281-.412.552-.412s.553.13.553.412v.644h2.534c.925,0,1.267.322,1.267,1v.724c0,.282-.281.432-.553.432s-.563-.151-.563-.432v-.553c0-.2-.08-.281-.342-.281h-5.73c-.261,0-.353.08-.353.281v.593c0,.282-.271.432-.552.432s-.552-.151-.552-.432v-.764c0-.674.331-1,1.266-1h2.473ZM281,224.85c-.2.382-.413.754-.644,1.106.713-.03,1.427-.07,2.151-.121l-.211-.151a.354.354,0,0,1-.171-.3.448.448,0,0,1,.463-.422.585.585,0,0,1,.322.09,11.345,11.345,0,0,1,1.679,1.237.533.533,0,0,1,.211.4.479.479,0,0,1-.482.463.6.6,0,0,1-.393-.161c-.151-.141-.322-.282-.483-.422-1.9.211-3.7.322-5.419.372a.442.442,0,0,1-.462-.463.426.426,0,0,1,.432-.452c.393,0,.794-.01,1.207-.02.242-.382.463-.764.664-1.156h-1.136a.392.392,0,0,1-.372-.432.387.387,0,0,1,.372-.432h5.047a.394.394,0,0,1,.382.432.4.4,0,0,1-.382.432Z" transform="translate(-137.047 -210.206)" fill="#ed877c"/>
    <path id="パス_17" data-name="パス 17" d="M105.445,209.251a.346.346,0,0,1,0,.69h-4.814c-.813,0-1.121-.3-1.121-.927v-4.2c0-.626.309-.927,1.121-.927h4.627a.347.347,0,0,1,0,.69h-4.505c-.338,0-.438.094-.438.374v3.93c0,.28.1.374.438.374Zm-4.52-2.033a.3.3,0,0,1-.272-.324.29.29,0,0,1,.272-.323h1.617a3.6,3.6,0,0,0,.064-.675h-.74a4.442,4.442,0,0,1-.258.382.389.389,0,0,1-.316.165.345.345,0,0,1-.359-.323.385.385,0,0,1,.086-.237,4.714,4.714,0,0,0,.56-1.028.329.329,0,0,1,.324-.216.353.353,0,0,1,.373.323.4.4,0,0,1-.021.122c-.021.058-.05.122-.072.18h2.45a.319.319,0,0,1,0,.632h-1.257a4.262,4.262,0,0,1-.064.675h1.9c.187,0,.273.159.273.323a.29.29,0,0,1-.273.324h-1.724a3.113,3.113,0,0,0,1.415,1.042.38.38,0,0,1-.1.748.538.538,0,0,1-.173-.036,3.925,3.925,0,0,1-1.688-1.372,3.391,3.391,0,0,1-1.6,1.423.435.435,0,0,1-.179.043.373.373,0,0,1-.367-.366.365.365,0,0,1,.238-.331,2.471,2.471,0,0,0,1.3-1.149Z" transform="translate(-68.354 -203.431)" fill="#ed877c"/>
    <path id="パス_18" data-name="パス 18" d="M115.719,205.516a2.619,2.619,0,0,0,.366.381c.079-.072.165-.144.258-.238a.3.3,0,0,1,.216-.093.342.342,0,0,1,.331.317.283.283,0,0,1-.108.215c-.064.058-.136.122-.208.179a3.329,3.329,0,0,0,.453.252.354.354,0,0,1-.116.683.339.339,0,0,1-.172-.05,4.5,4.5,0,0,1-.6-.4v.9c0,.438-.23.6-.7.6h-.359v.934c0,.524-.23.74-.79.74a1.829,1.829,0,0,1-.424-.043.347.347,0,0,1,.115-.683,1.481,1.481,0,0,0,.237.029c.094,0,.115-.029.115-.136v-.841h-.4c-.474,0-.7-.159-.7-.6V206.9c-.122.093-.251.187-.374.273a.39.39,0,0,1-.216.073.3.3,0,0,1-.3-.3.332.332,0,0,1,.173-.28,4.078,4.078,0,0,0,.453-.337c-.08-.072-.159-.13-.223-.18a.273.273,0,0,1-.122-.222.32.32,0,0,1,.309-.3.352.352,0,0,1,.179.058,1.738,1.738,0,0,1,.295.223c.108-.13.216-.252.316-.388h-.841a.27.27,0,0,1-.258-.295.267.267,0,0,1,.258-.3h1.214a2.563,2.563,0,0,0,.143-.287.355.355,0,0,1,.195-.186h-1.768c-.273,0-.345.072-.345.28v1.07a6.909,6.909,0,0,1-.884,3.679.409.409,0,0,1-.352.209.369.369,0,0,1-.381-.353.419.419,0,0,1,.079-.236,4.492,4.492,0,0,0,.682-1.746c-.143.086-.287.165-.438.244a.387.387,0,0,1-.193.05.361.361,0,0,1-.345-.352.35.35,0,0,1,.23-.316,6.353,6.353,0,0,0,.848-.453c.015-.237.015-.474.021-.712a.374.374,0,0,1-.323.2.329.329,0,0,1-.295-.187c-.079-.158-.2-.337-.3-.5a.31.31,0,0,1-.057-.179.342.342,0,0,1,.352-.316.362.362,0,0,1,.288.144,3.95,3.95,0,0,1,.337.554v-.877c0-.568.258-.827.991-.827h1.459v-.388c0-.2.194-.295.381-.295s.381.093.381.295v.388H117a.317.317,0,0,1,0,.626h-2.328a.311.311,0,0,1,.238.287.3.3,0,0,1-.029.129c-.007.022-.021.036-.029.058h1.861a.267.267,0,0,1,.258.3.271.271,0,0,1-.258.295Zm-2.213,2.846a.383.383,0,0,1,.374.359.322.322,0,0,1-.116.236,4.951,4.951,0,0,1-.934.655.388.388,0,0,1-.187.05.366.366,0,0,1-.359-.359.347.347,0,0,1,.2-.309,3.962,3.962,0,0,0,.775-.532A.349.349,0,0,1,113.506,208.362Zm1.983-1.48c0-.1-.05-.137-.187-.137h-1.25c-.143,0-.186.036-.186.137v.143h1.623Zm-.187.876c.137,0,.187-.036.187-.137v-.151h-1.623v.151c.007.122.078.137.186.137Zm.129-1.516a.658.658,0,0,1,.115.007,6.206,6.206,0,0,1-.568-.732H114.5a5.829,5.829,0,0,1-.588.726Zm1.358,2.687a.362.362,0,0,1-.158.69.4.4,0,0,1-.209-.057,6.215,6.215,0,0,1-.855-.576.372.372,0,0,1-.144-.28.35.35,0,0,1,.353-.338.419.419,0,0,1,.251.094A5.445,5.445,0,0,0,116.789,208.929Z" transform="translate(-72.604 -203.145)" fill="#ed877c"/>
    <path id="パス_19" data-name="パス 19" d="M123.62,205.809a.433.433,0,0,1,.122.288.4.4,0,0,1-.4.388.367.367,0,0,1-.273-.123,7.032,7.032,0,0,0-.6-.56.347.347,0,0,1-.151-.272.39.39,0,0,1,.4-.359.448.448,0,0,1,.252.079A3.751,3.751,0,0,1,123.62,205.809Zm.159,1.366a.4.4,0,0,1,.424.366.385.385,0,0,1-.021.122,8.906,8.906,0,0,1-.87,1.919.448.448,0,0,1-.388.224.379.379,0,0,1-.4-.353.419.419,0,0,1,.079-.236,8.53,8.53,0,0,0,.812-1.789A.359.359,0,0,1,123.779,207.175Zm.359-3.089a.422.422,0,0,1,.122.287.4.4,0,0,1-.388.382.389.389,0,0,1-.28-.137,7.637,7.637,0,0,0-.582-.546.356.356,0,0,1-.143-.266.39.39,0,0,1,.4-.353.437.437,0,0,1,.251.087A3.993,3.993,0,0,1,124.138,204.085Zm4.059.589a.347.347,0,0,1,0,.69H126.9V206.4h1.753a.347.347,0,0,1,0,.69h-2.1a14.008,14.008,0,0,1-.726,1.732c.5-.064,1-.129,1.495-.216-.115-.144-.23-.287-.337-.417a.364.364,0,0,1-.093-.23.373.373,0,0,1,.38-.345.441.441,0,0,1,.316.144,13,13,0,0,1,1.092,1.358.39.39,0,0,1,.079.237.419.419,0,0,1-.424.388.439.439,0,0,1-.367-.216c-.057-.1-.129-.208-.208-.323a24.1,24.1,0,0,1-3.133.5.377.377,0,0,1-.438-.381.356.356,0,0,1,.344-.367c.13-.007.259-.021.4-.036.137-.266.28-.538.4-.812a10.11,10.11,0,0,0,.395-1.013h-1.222a.347.347,0,0,1,0-.69h1.617v-1.035h-1.193a.347.347,0,0,1,0-.69h1.193v-1.02a.391.391,0,0,1,.776,0v1.02Z" transform="translate(-77.194 -203.209)" fill="#ed877c"/>
    <path id="パス_20" data-name="パス 20" d="M137.936,206a6.188,6.188,0,0,0,1.035,1.9,4.871,4.871,0,0,0,.833.8,6.123,6.123,0,0,0,.553.359.423.423,0,0,1,.245.374.42.42,0,0,1-.633.367,5.843,5.843,0,0,1-2.615-3.392,5.2,5.2,0,0,1-.877,1.868,6.135,6.135,0,0,1-1.8,1.588.5.5,0,0,1-.251.072.386.386,0,0,1-.381-.4.394.394,0,0,1,.215-.352,5.229,5.229,0,0,0,1.6-1.387,6.053,6.053,0,0,0,.955-3.822.42.42,0,0,1,.826,0c0,.266-.007.517-.021.754A8.7,8.7,0,0,0,137.936,206Z" transform="translate(-81.741 -203.331)" fill="#ed877c"/>
    <path id="パス_21" data-name="パス 21" d="M146.652,209.7c0,.2-.186.3-.373.3s-.381-.1-.381-.3v-2.271c-.166.137-.331.258-.5.374a.41.41,0,0,1-.237.078.356.356,0,0,1-.345-.352.378.378,0,0,1,.187-.316,4.8,4.8,0,0,0,1.631-1.811.225.225,0,0,0,.021-.079c0-.05-.043-.072-.129-.072h-1.279c-.179,0-.265-.173-.265-.345s.086-.337.265-.337h.647v-.991c0-.2.187-.295.381-.295s.373.093.373.295v.991h.209c.41,0,.639.187.639.517a1.047,1.047,0,0,1-.093.4,4.671,4.671,0,0,1-.7,1.114,4.672,4.672,0,0,1,.833.5.382.382,0,0,1,.173.3.349.349,0,0,1-.338.345.371.371,0,0,1-.238-.094,4.449,4.449,0,0,0-.489-.337Zm2.422-3.1h-1.035a.335.335,0,0,1-.316-.367.332.332,0,0,1,.316-.366h1.035V203.76a.406.406,0,0,1,.8,0v2.105h1.164a.328.328,0,0,1,.317.366.331.331,0,0,1-.317.367h-1.164v2.328h1.387a.327.327,0,0,1,.316.366.331.331,0,0,1-.316.367h-3.672a.336.336,0,0,1-.315-.367.331.331,0,0,1,.315-.366h1.481Z" transform="translate(-85.919 -203.2)" fill="#ed877c"/>
    <path id="パス_22" data-name="パス 22" d="M158.189,209.96c-.812,0-1.114-.337-1.114-.984v-4.1c0-.646.3-.984,1.114-.984h3.787c.819,0,1.113.338,1.113.984v4.1c-.014.761-.41.97-1.113.984Zm3.629-.7c.359,0,.475-.108.475-.4V205c0-.287-.116-.4-.475-.4h-3.471c-.352,0-.474.108-.474.4v3.865c.007.324.179.388.474.4Zm-3.306-2.852a.317.317,0,0,1-.309-.338.313.313,0,0,1,.309-.337h1.962v-.6a.38.38,0,0,1,.747,0v.6h.568a.312.312,0,0,1,.309.337.309.309,0,0,1-.309.338h-.568v1.761c0,.6-.3.8-.855.8a2.655,2.655,0,0,1-.532-.05.361.361,0,0,1,.122-.712,1.727,1.727,0,0,0,.33.036c.137,0,.187-.036.187-.173V206.4Zm1.351.841a.376.376,0,0,1-.287.625.328.328,0,0,1-.252-.115,6.762,6.762,0,0,0-.51-.51.322.322,0,0,1-.122-.245.379.379,0,0,1,.381-.359.389.389,0,0,1,.23.079A3.492,3.492,0,0,1,159.863,207.244Z" transform="translate(-90.669 -203.436)" fill="#ed877c"/>
    <path id="パス_23" data-name="パス 23" d="M171.538,205.6c-.179,0-.272-.173-.272-.345s.093-.345.266-.345h.675v-1.286c0-.187.187-.28.366-.28s.366.094.366.28v1.286h.475c.18,0,.273.173.273.345s-.093.345-.273.345h-.475v.625a4.771,4.771,0,0,1,.748.813.361.361,0,0,1,.079.215.311.311,0,0,1-.317.3.3.3,0,0,1-.258-.143,3.356,3.356,0,0,0-.252-.352V209.7a.326.326,0,0,1-.366.309.33.33,0,0,1-.366-.309V208.7l.021-1.458a5.362,5.362,0,0,1-.467.977.319.319,0,0,1-.273.166.326.326,0,0,1-.323-.317.39.39,0,0,1,.064-.2,7.836,7.836,0,0,0,.906-2.263Zm3.643.718a.368.368,0,0,1,.374-.273.381.381,0,0,1,.41.359.33.33,0,0,1-.015.115,16.7,16.7,0,0,1-.819,2.3c.453-.043.913-.094,1.366-.166-.1-.151-.2-.3-.3-.438a.341.341,0,0,1-.065-.186.359.359,0,0,1,.367-.338.377.377,0,0,1,.309.159,7.726,7.726,0,0,1,.854,1.372.426.426,0,0,1,.044.179.4.4,0,0,1-.4.388.346.346,0,0,1-.317-.216c-.05-.108-.1-.208-.157-.316a22.483,22.483,0,0,1-2.809.381.367.367,0,0,1-.4-.381.335.335,0,0,1,.337-.352l.345-.021A17.958,17.958,0,0,0,175.18,206.319Zm-.143-2.73a.4.4,0,0,1,.417.359.484.484,0,0,1-.015.1,7.366,7.366,0,0,1-1,2.22.4.4,0,0,1-.344.187.37.37,0,0,1-.388-.352.461.461,0,0,1,.086-.252,6.675,6.675,0,0,0,.9-2A.341.341,0,0,1,175.037,203.589ZM177.868,206a.378.378,0,0,1-.388.373.448.448,0,0,1-.359-.2,8.268,8.268,0,0,1-1.121-2.17.409.409,0,0,1-.021-.122.347.347,0,0,1,.367-.33.387.387,0,0,1,.366.266,8.04,8.04,0,0,0,1.05,1.9A.492.492,0,0,1,177.868,206Z" transform="translate(-96.131 -203.222)" fill="#ed877c"/>
    <path id="パス_24" data-name="パス 24" d="M183.276,205.66a.307.307,0,0,1-.287-.345c0-.172.093-.345.28-.345h.8v-1.307c0-.2.187-.295.374-.295s.374.093.374.295v1.307h.6c.187,0,.28.173.28.345s-.094.345-.28.345h-.6v.625a4.5,4.5,0,0,1,.877.74.42.42,0,0,1,.107.258.341.341,0,0,1-.345.331.31.31,0,0,1-.251-.129,5.343,5.343,0,0,0-.388-.41v2.645a.378.378,0,0,1-.748,0v-1.014l.029-1.552a6.347,6.347,0,0,1-.618,1.165.362.362,0,0,1-.295.172.348.348,0,0,1-.344-.338.319.319,0,0,1,.064-.2,7.809,7.809,0,0,0,1.063-2.292Zm4.584-1.955a.346.346,0,0,1,.381-.331.342.342,0,0,1,.381.331v1.588h.676a.354.354,0,0,1,0,.7h-.676v3.032c0,.6-.215.912-.912.912a2.545,2.545,0,0,1-.568-.05.353.353,0,0,1-.28-.366.373.373,0,0,1,.46-.381,1.994,1.994,0,0,0,.3.029c.187,0,.237-.058.237-.273v-2.9h-1.717a.355.355,0,0,1,0-.7h1.717Zm-.467,3.636a.465.465,0,0,1,.072.237.4.4,0,0,1-.747.172,5.3,5.3,0,0,0-.431-.625.365.365,0,0,1-.094-.236.374.374,0,0,1,.388-.338.439.439,0,0,1,.33.151A4.085,4.085,0,0,1,187.393,207.342Z" transform="translate(-100.659 -203.231)" fill="#ed877c"/>
    <path id="パス_25" data-name="パス 25" d="M197.832,203.5a.392.392,0,0,1,.769,0v.272h1.545a.3.3,0,0,1,.3.323.3.3,0,0,1-.3.324H198.6v.373h2.515a.332.332,0,0,1,0,.661h-6.057a.333.333,0,0,1,0-.661h1.092v-.97a.392.392,0,0,1,.768,0v.97h.912Zm2.235,2.493a.4.4,0,0,1,.776,0v2.939c0,.6-.252.905-1.02.905H196.33c-.769,0-1.02-.3-1.02-.905V206c0-.209.194-.309.388-.309s.388.1.388.309v2.845c0,.266.08.345.374.345h3.233c.3,0,.374-.079.374-.345Zm-1.659,2.45v.345c0,.186-.173.28-.345.28s-.345-.094-.345-.28v-.345l.021-.481a5.416,5.416,0,0,1-1.006.812.389.389,0,0,1-.2.065.31.31,0,0,1-.3-.309.3.3,0,0,1,.165-.258,4.621,4.621,0,0,0,1.013-.805H196.6a.285.285,0,0,1,0-.567h1.121v-1.021c0-.187.172-.28.345-.28s.345.093.345.28V206.9h1.149a.284.284,0,0,1,0,.567h-.87a5.382,5.382,0,0,0,1.02.647.342.342,0,0,1,.209.309.335.335,0,0,1-.324.338.446.446,0,0,1-.194-.058,4.667,4.667,0,0,1-1.013-.762Zm-1.876-2.342a.327.327,0,0,1,.338-.3.353.353,0,0,1,.266.123,2.46,2.46,0,0,1,.273.366.358.358,0,0,1,.058.173.348.348,0,0,1-.352.323.3.3,0,0,1-.258-.151c-.072-.115-.151-.23-.266-.381A.238.238,0,0,1,196.531,206.1Zm2.752-.323a.318.318,0,0,1,.331.295.259.259,0,0,1-.036.137,2.7,2.7,0,0,1-.317.467.311.311,0,0,1-.244.122.322.322,0,0,1-.324-.295.311.311,0,0,1,.065-.18,3.871,3.871,0,0,0,.273-.4A.276.276,0,0,1,199.283,205.774Z" transform="translate(-105.279 -203.159)" fill="#ed877c"/>
    <path id="パス_26" data-name="パス 26" d="M207.709,207.366a5.569,5.569,0,0,1-.611,1.092.377.377,0,0,1-.309.179.325.325,0,0,1-.323-.316.366.366,0,0,1,.072-.208,8,8,0,0,0,1.07-2.206h-.769c-.187,0-.273-.172-.273-.344s.086-.338.265-.338h.848v-.647c-.208.043-.41.079-.6.1a.332.332,0,0,1-.381-.345.323.323,0,0,1,.28-.33,8.426,8.426,0,0,0,1.76-.5.457.457,0,0,1,.158-.036.37.37,0,0,1,.345.388.327.327,0,0,1-.209.317c-.2.079-.4.151-.611.215v.834h.69c.187,0,.273.172.273.338s-.086.344-.273.344h-.69v.417a3.955,3.955,0,0,1,.8.683.356.356,0,0,1,.1.244.34.34,0,0,1-.331.331.323.323,0,0,1-.252-.129,4.624,4.624,0,0,0-.323-.345v2.652a.329.329,0,0,1-.367.3c-.186,0-.374-.1-.374-.3v-.8Zm5.1-.4a.346.346,0,0,1,.4.374.313.313,0,0,1-.251.323l-.661.145v1.875a.4.4,0,0,1-.783,0v-1.7l-1.926.424a.357.357,0,0,1-.4-.388.3.3,0,0,1,.244-.316l2.084-.46v-3.557a.4.4,0,0,1,.783,0v3.391Zm-1.933-.719a.38.38,0,0,1,.122.273.393.393,0,0,1-.381.381.376.376,0,0,1-.266-.122c-.172-.165-.4-.366-.574-.5a.335.335,0,0,1-.145-.266.38.38,0,0,1,.382-.359.4.4,0,0,1,.23.072A4.312,4.312,0,0,1,210.878,206.244Zm.259-1.509a.4.4,0,0,1,.115.266.385.385,0,0,1-.374.374.4.4,0,0,1-.28-.122c-.173-.165-.38-.345-.546-.481a.336.336,0,0,1-.137-.266.375.375,0,0,1,.381-.359.428.428,0,0,1,.23.072A4.6,4.6,0,0,1,211.137,204.736Z" transform="translate(-109.815 -203.227)" fill="#ed877c"/>
    <path id="パス_27" data-name="パス 27" d="M224.644,209.251a.346.346,0,0,1,0,.69H219.83c-.812,0-1.121-.3-1.121-.927v-4.2c0-.626.309-.927,1.121-.927h4.627a.347.347,0,0,1,0,.69h-4.505c-.338,0-.438.094-.438.374v3.93c0,.28.1.374.438.374Zm-4.52-2.033a.3.3,0,0,1-.273-.324.29.29,0,0,1,.273-.323h1.617a3.55,3.55,0,0,0,.064-.675h-.74a4.437,4.437,0,0,1-.258.382.391.391,0,0,1-.317.165.345.345,0,0,1-.359-.323.383.383,0,0,1,.087-.237,4.741,4.741,0,0,0,.56-1.028.328.328,0,0,1,.323-.216.353.353,0,0,1,.373.323.385.385,0,0,1-.021.122c-.021.058-.05.122-.072.18h2.45a.319.319,0,0,1,0,.632h-1.257a4.262,4.262,0,0,1-.064.675h1.9c.187,0,.272.159.272.323a.29.29,0,0,1-.272.324H222.69a3.113,3.113,0,0,0,1.415,1.042.388.388,0,0,1,.288.359.392.392,0,0,1-.388.388.538.538,0,0,1-.173-.036,3.929,3.929,0,0,1-1.688-1.372,3.388,3.388,0,0,1-1.6,1.423.433.433,0,0,1-.179.043.373.373,0,0,1-.367-.366.366.366,0,0,1,.238-.331,2.469,2.469,0,0,0,1.3-1.149Z" transform="translate(-114.562 -203.431)" fill="#ed877c"/>
    <path id="パス_28" data-name="パス 28" d="M231.512,203.557c.5,0,.755.222.755.611a1.366,1.366,0,0,1-.05.323,9.494,9.494,0,0,1-.511,1.394,2.163,2.163,0,0,1,.611,1.509c0,.811-.309,1.106-.877,1.106a1.307,1.307,0,0,1-.244-.014.3.3,0,0,1-.244-.193v1.465c0,.187-.187.287-.381.287s-.381-.1-.381-.287v-5.5c0-.481.209-.7.74-.7Zm-.416.69c-.115,0-.144.043-.144.172v3.557a.282.282,0,0,1,.3-.209.733.733,0,0,0,.115.007c.151,0,.193-.072.193-.38a1.773,1.773,0,0,0-.438-1.121.446.446,0,0,1-.137-.316.75.75,0,0,1,.086-.317,7.145,7.145,0,0,0,.416-1.222.507.507,0,0,0,.015-.086c0-.065-.043-.086-.137-.086Zm4.174,4.842c0,.13.058.159.252.159.251,0,.3-.086.323-.381a.376.376,0,0,1,.747.058c-.05.719-.3,1-1.121,1-.733,0-.949-.165-.949-.661v-1.9h-.416a2.857,2.857,0,0,1-1.768,2.615.376.376,0,0,1-.151.029.365.365,0,0,1-.352-.366.36.36,0,0,1,.236-.331,2.1,2.1,0,0,0,1.265-1.947h-.56a.305.305,0,0,1-.288-.338.3.3,0,0,1,.288-.337h3.42a.31.31,0,0,1,.295.337.307.307,0,0,1-.295.338h-.927Zm-1.264-5.432c0-.2.194-.3.395-.3s.388.1.388.3v.582h.87c.632,0,.812.266.812.718v.381c0,.195-.187.3-.381.3s-.381-.1-.381-.3v-.265c0-.137-.058-.173-.23-.173h-2.055c-.173,0-.23.036-.23.173v.315c0,.195-.187.3-.374.3s-.381-.1-.381-.3v-.431c0-.452.172-.718.805-.718h.761Zm-.481,2.479a.309.309,0,0,1-.287-.338.306.306,0,0,1,.287-.338h1.868a.305.305,0,0,1,.288.338.3.3,0,0,1-.288.338Z" transform="translate(-119.012 -203.227)" fill="#ed877c"/>
  </g>
</svg>
